<svg width="110" height="105" viewBox="0 0 110 105" fill="none" xmlns="http://www.w3.org/2000/svg">
<path fill-rule="evenodd" clip-rule="evenodd" d="M69 50.75C69 55.2991 65.2991 59 60.75 59H49.25C44.7009 59 41 55.2991 41 50.75V49.25C41 44.7009 44.7009 41 49.25 41H60.75C65.2991 41 69 44.7009 69 49.25V50.75ZM69 57C68.9979 58.8559 68.2597 60.6351 66.9474 61.9474C65.6351 63.2597 63.8559 63.9979 62 64H57.5V61.5C57.5 61.3674 57.4473 61.2402 57.3536 61.1464C57.2598 61.0527 57.1326 61 57 61H53C52.8674 61 52.7402 61.0527 52.6464 61.1464C52.5527 61.2402 52.5 61.3674 52.5 61.5V64H48C46.1441 63.9979 44.3649 63.2597 43.0526 61.9474C41.7403 60.6351 41.0021 58.8559 41 57V54.9304C41.7734 56.4545 42.9535 57.7347 44.4096 58.6295C45.8657 59.5243 47.541 59.9986 49.25 60H60.75C62.459 59.9986 64.1344 59.5243 65.5904 58.6295C67.0465 57.7347 68.2266 56.4545 69 54.9304V57ZM55.5 64V62H56.5V64H55.5ZM54.5 64H53.5V62H54.5V64ZM60.75 40H49.25C44.1495 40 40 44.1495 40 49.25V57C40.0024 59.121 40.846 61.1544 42.3458 62.6542C43.8456 64.154 45.879 64.9976 48 65H62C64.121 64.9976 66.1544 64.154 67.6542 62.6542C69.154 61.1544 69.9976 59.121 70 57V49.25C70 44.1495 65.8505 40 60.75 40Z" fill="#595959"/>
<path fill-rule="evenodd" clip-rule="evenodd" d="M48.5 57H49.5V58H48.5V57Z" fill="#595959"/>
<path fill-rule="evenodd" clip-rule="evenodd" d="M58.5 61.5H59.5V62.5H58.5V61.5Z" fill="#595959"/>
<path fill-rule="evenodd" clip-rule="evenodd" d="M60.5 61.5H61.5V62.5H60.5V61.5Z" fill="#595959"/>
<path fill-rule="evenodd" clip-rule="evenodd" d="M62.5 61.5H63.5V62.5H62.5V61.5Z" fill="#595959"/>
<path fill-rule="evenodd" clip-rule="evenodd" d="M46.5 61.5H47.5V62.5H46.5V61.5Z" fill="#595959"/>
<path fill-rule="evenodd" clip-rule="evenodd" d="M48.5 61.5H49.5V62.5H48.5V61.5Z" fill="#595959"/>
<path fill-rule="evenodd" clip-rule="evenodd" d="M50.5 61.5H51.5V62.5H50.5V61.5Z" fill="#595959"/>
<path fill-rule="evenodd" clip-rule="evenodd" d="M67 49V50.5C66.998 52.2233 66.3126 53.8755 65.094 55.094C63.8755 56.3126 62.2233 56.9981 60.5 57H50.5V58H60.5C62.4884 57.9978 64.3948 57.2069 65.8008 55.8008C67.2068 54.3948 67.9977 52.4884 68 50.5V49H67Z" fill="#595959"/>
<path fill-rule="evenodd" clip-rule="evenodd" d="M45.6402 47.5564L46.3579 48.5612C45.8113 49.1714 45.3662 49.8652 45.0394 50.6163C45.0136 50.4119 45.0005 50.206 45 50C44.9993 49.1439 45.2198 48.3022 45.6402 47.5564ZM49.5937 45.0179L49.856 46.3298C48.8354 46.6398 47.8905 47.1587 47.0812 47.8535L46.2532 46.6943C47.1075 45.7239 48.3051 45.1229 49.5937 45.0179ZM63.7468 46.6943L62.9188 47.8535C62.1095 47.1587 61.1645 46.6398 60.144 46.3298L60.4063 45.0179C61.6949 45.1229 62.8925 45.7239 63.7468 46.6943ZM64.9606 50.6163C64.6338 49.8652 64.1887 49.1714 63.6421 48.5612L64.3598 47.5564C64.7802 48.3022 65.0007 49.1439 65 50C64.9995 50.206 64.9864 50.4119 64.9606 50.6163ZM58.5 50H59.5V55H58.5V50ZM56.5 50H57.5V55H56.5V50ZM54.5 50H55.5V55H54.5V50ZM52.5 50H53.5V55H52.5V50ZM50.5 50H51.5V55H50.5V50ZM48.5 50.5337C48.8133 50.3531 49.1497 50.216 49.5 50.1262V54.9749C49.1605 54.9411 48.8254 54.8724 48.5 54.7698V50.5337ZM47.5 51.3511V54.3273C47.1448 54.1213 46.8161 53.8726 46.5214 53.5866C46.6054 52.7573 46.9477 51.9754 47.5 51.3511ZM50.3906 49.0027C49.6551 49.0174 48.9319 49.1947 48.2729 49.5219L47.6656 48.6716C48.3591 48.0594 49.1721 47.5976 50.0532 47.3155L50.3906 49.0027ZM52.0828 47H54.5V49H51.4099L51.0269 47.0852C51.3761 47.0289 51.7291 47.0004 52.0828 47ZM58.5901 49H55.5V47H57.9172C58.2709 47.0004 58.6239 47.0289 58.9731 47.0852L58.5901 49ZM61.7267 49.5224C61.0679 49.195 60.3449 49.0175 59.6094 49.0027L59.9468 47.3155C60.8279 47.5976 61.6409 48.0594 62.3344 48.6716L61.7267 49.5224ZM62.5 51.3521C63.0522 51.976 63.3945 52.7576 63.4787 53.5865C63.184 53.8725 62.8553 54.1213 62.5 54.3273V51.3521ZM61.5 50.5343V54.7698C61.1746 54.8724 60.8395 54.9411 60.5 54.9749V50.1265C60.8503 50.2164 61.1867 50.3536 61.5 50.5343ZM64.2908 52.5634C63.9934 51.5694 63.3936 50.6928 62.5748 50.0555L63.0435 49.3992C63.7394 50.2307 64.2214 51.2196 64.4476 52.28C64.3981 52.3762 64.3463 52.4709 64.2908 52.5634ZM59.1695 46.1028C58.7556 46.0344 58.3368 46 57.9172 46H55.5V45H59.3901L59.1695 46.1028ZM50.6099 45H54.5V46H52.0828C51.6632 46 51.2444 46.0344 50.8305 46.1028L50.6099 45ZM45.5524 52.28C45.7786 51.2196 46.2606 50.2307 46.9565 49.3992L47.4247 50.0548C46.6058 50.692 46.006 51.5687 45.7088 52.5628C45.6535 52.4705 45.6018 52.3759 45.5524 52.28ZM66 50C65.9982 48.4093 65.3655 46.8842 64.2407 45.7593C63.1158 44.6345 61.5907 44.0018 60 44H50C48.4087 44 46.8826 44.6321 45.7574 45.7574C44.6321 46.8826 44 48.4087 44 50C44 51.5913 44.6321 53.1174 45.7574 54.2426C46.8826 55.3679 48.4087 56 50 56H60C61.5907 55.9982 63.1158 55.3655 64.2407 54.2407C65.3655 53.1158 65.9982 51.5907 66 50Z" fill="#595959"/>
</svg>
