<svg width="124" height="147" viewBox="0 0 124 147" fill="none" xmlns="http://www.w3.org/2000/svg">
<rect width="124" height="147" fill="#F2F2F2"/>
<g id="01_Splashscreen" clip-path="url(#clip0_0_1)">
<rect width="375" height="812" transform="translate(-125 -302)" fill="black" fill-opacity="0.01"/>
<path id="Background" fill-rule="evenodd" clip-rule="evenodd" d="M-125 -302H250V510H-125V-302Z" fill="white"/>
<g id="BACKGROUND" clip-path="url(#clip1_0_1)">
<path id="pageBackground" fill-rule="evenodd" clip-rule="evenodd" d="M-125 -302H250V510H-125V-302Z" fill="#04764E"/>
<g id="image" clip-path="url(#clip2_0_1)">
<path id="placeholder" fill-rule="evenodd" clip-rule="evenodd" d="M-125 -302H250V510H-125V-302Z" fill="#04764E"/>
</g>
</g>
<g id="Club Logo" clip-path="url(#clip3_0_1)">
<g id="Group 1737" clip-path="url(#clip4_0_1)">
<g id="Group 1735" clip-path="url(#clip5_0_1)">
<g id="Group 1734">
<path id="Vector" fill-rule="evenodd" clip-rule="evenodd" d="M60.9058 146.088C54.2058 143.988 33.3058 128.588 17.9058 98.6879C8.70582 80.8879 1.30583 57.888 0.00583 29.488C-0.09417 27.988 1.10582 26.688 2.60582 26.5879C8.90582 26.188 15.3058 25.388 21.5058 24.188C21.4058 21.188 20.7058 17.8879 23.6058 17.2879C36.1058 14.5879 51.0058 9.48795 59.8058 0.78795C60.9058 -0.31205 62.6058 -0.21205 63.6058 0.78795C72.4058 9.38795 87.3058 14.4879 99.8058 17.2879C102.606 17.8879 101.906 21.188 101.806 24.188C108.006 25.388 114.506 26.288 120.706 26.5879C122.206 26.688 123.406 27.988 123.306 29.488C121.906 57.888 114.606 80.8879 105.406 98.6879C89.9058 128.688 68.8058 144.188 62.4058 146.088C61.9058 146.288 61.4058 146.288 60.9058 146.088Z" fill="white"/>
<g id="Group">
<path id="Vector_2" fill-rule="evenodd" clip-rule="evenodd" d="M61.7101 143.49C52.0101 140.69 6.31006 103.99 2.81006 29.3899C12.1101 28.8899 22.1101 27.2899 31.5101 24.6899H92.0101C101.41 27.2899 111.41 28.7899 120.71 29.3899C117.11 103.99 71.4101 140.69 61.7101 143.49Z" fill="white"/>
<path id="Vector_3" fill-rule="evenodd" clip-rule="evenodd" d="M61.7101 136.99C54.1101 134.29 18.2101 99.2898 15.8101 28.0898C21.1101 27.2898 26.4101 26.1898 31.5101 24.7898H92.0101C97.1101 26.1898 102.41 27.2898 107.71 28.0898C105.21 99.2898 69.3101 134.29 61.7101 136.99Z" fill="white"/>
<path id="Vector_4" fill-rule="evenodd" clip-rule="evenodd" d="M61.7101 131.79C43.8101 119.09 28.4101 68.9899 26.0101 50.4899C25.0101 42.9899 24.4101 28.6899 24.2101 20.0899C39.2101 16.7899 53.3101 11.1899 61.7101 2.88989C70.1101 11.1899 84.3101 16.7899 99.2101 20.0899C99.0101 28.6899 98.4101 42.9899 97.4101 50.4899C95.0101 68.9899 79.9101 118.79 61.7101 131.79Z" fill="black"/>
<path id="Vector_5" fill-rule="evenodd" clip-rule="evenodd" d="M61.71 106.39L64.0101 111.59L69.6101 112.19L65.4101 115.89L66.6101 121.39L61.71 118.59L56.8101 121.39L58.0101 115.89L53.8101 112.19L59.41 111.59L61.71 106.39Z" fill="white"/>
</g>
<path id="Vector_6" fill-rule="evenodd" clip-rule="evenodd" d="M61.71 102.19C81.41 102.19 97.51 86.0901 97.51 66.3901C97.51 46.6901 81.41 30.5901 61.71 30.5901C42.01 30.5901 25.91 46.6901 25.91 66.3901C25.91 86.0901 42.01 102.19 61.71 102.19Z" fill="white"/>
<path id="Vector_7" fill-rule="evenodd" clip-rule="evenodd" d="M61.71 96.6901C81.41 96.6901 97.51 80.5901 97.51 60.8901C97.51 41.1901 81.41 25.0901 61.71 25.0901C42.01 25.0901 25.91 41.1901 25.91 60.8901C25.91 80.5901 42.01 96.6901 61.71 96.6901Z" fill="#D0D0D0"/>
<g id="Group_2">
<path id="Vector_8" fill-rule="evenodd" clip-rule="evenodd" d="M61.71 90.19C81.01 90.19 96.81 74.39 96.81 55.09C96.81 35.79 81.01 19.99 61.71 19.99C42.41 19.99 26.61 35.79 26.61 55.09C26.61 74.39 42.41 90.19 61.71 90.19Z" fill="white"/>
<path id="Vector_9" fill-rule="evenodd" clip-rule="evenodd" d="M83.01 27.1899C91.41 33.5899 96.71 43.6899 96.71 55.0899C96.71 74.4899 81.01 90.1899 61.61 90.1899C49.81 90.1899 39.31 84.2899 32.91 75.2899C38.81 79.7899 46.21 82.4899 54.21 82.4899C73.61 82.4899 89.31 66.7899 89.31 47.3899C89.51 39.8899 87.11 32.8899 83.01 27.1899Z" fill="#DADADA"/>
<path id="Vector_10" fill-rule="evenodd" clip-rule="evenodd" d="M89.81 73.5899C90.51 71.7899 90.81 70.0899 90.71 68.4899C91.21 67.7899 91.61 67.0899 92.01 66.2899C92.81 64.7899 93.41 63.1899 93.81 61.5899C94.51 59.0899 94.81 56.4899 94.71 53.6899C94.91 53.4899 95.21 53.0899 95.41 52.6899C95.51 53.4899 95.51 54.2899 95.51 55.0899C95.51 60.3899 94.31 65.3899 92.11 69.8899C91.31 71.1899 90.61 72.3899 89.81 73.5899ZM82.91 70.4899C82.71 70.4899 82.51 70.4899 82.41 70.4899C81.71 68.3899 80.91 66.5899 79.91 64.7899C79.71 64.3899 79.41 63.8899 79.21 63.4899C78.41 62.1899 77.51 60.8899 76.51 59.7899C77.71 57.1899 78.61 54.6899 79.21 52.0899C79.61 50.1899 79.91 48.2899 80.11 46.3899C81.11 46.1899 82.11 45.8899 83.01 45.6899C85.11 45.1899 87.11 44.6899 89.21 44.0899C90.11 44.6899 91.21 45.9899 92.11 47.5899C92.91 49.0899 93.71 50.8899 94.21 52.9899C94.41 56.0899 94.11 58.8899 93.41 61.5899C93.11 62.7899 92.61 63.9899 92.11 65.1899C91.61 66.2899 91.01 67.3899 90.41 68.3899C87.81 69.5899 85.31 70.3899 82.91 70.4899ZM79.11 75.6899C77.61 77.8899 75.91 79.6899 74.41 80.6899C72.21 81.3899 69.71 81.8899 67.21 82.0899C66.61 82.0899 66.01 82.1899 65.51 82.1899C63.01 82.1899 60.81 81.8899 59.21 81.2899C58.81 80.7899 58.41 80.1899 58.01 79.6899C56.31 77.2899 54.91 74.5899 54.01 71.5899C55.41 69.9899 56.71 68.2899 58.01 66.6899C58.21 66.4899 58.41 66.1899 58.51 65.9899C59.91 64.0899 61.21 62.2899 62.31 60.2899C63.91 60.3899 65.61 60.4899 67.21 60.4899C70.11 60.4899 73.01 60.3899 75.91 60.0899C77.11 61.4899 78.21 62.9899 79.11 64.6899C79.21 64.8899 79.31 64.9899 79.41 65.1899C80.31 66.8899 81.11 68.6899 81.81 70.5899C81.21 72.2899 80.21 74.0899 79.11 75.6899ZM79.11 83.8899C78.41 84.2899 77.71 84.6899 76.91 85.0899C77.01 84.8899 77.11 84.5899 77.21 84.3899C77.91 84.2899 78.51 84.0899 79.11 83.8899C79.21 83.7899 79.31 83.7899 79.31 83.6899C79.31 83.7899 79.21 83.8899 79.11 83.8899ZM76.11 85.5899C73.31 86.8899 70.41 87.7899 67.31 88.3899C65.51 88.6899 63.71 88.8899 61.81 88.8899C60.51 88.8899 59.31 88.7899 58.11 88.6899C56.11 88.4899 54.11 88.0899 52.21 87.4899C52.01 87.4899 51.91 87.3899 51.71 87.2899C51.21 86.8899 50.91 86.2899 50.71 85.5899V85.4899C51.21 85.4899 51.71 85.3899 52.21 85.2899C54.41 84.8899 56.31 84.0899 58.11 82.7899C58.51 82.4899 58.91 82.1899 59.21 81.8899C60.81 82.5899 63.11 82.8899 65.61 82.7899C66.21 82.7899 66.81 82.7899 67.31 82.6899C69.51 82.5899 71.71 82.1899 73.71 81.5899C74.61 82.6899 75.51 83.7899 76.81 84.3899C76.51 84.7899 76.31 85.1899 76.11 85.5899ZM50.61 86.8899C45.91 85.1899 41.61 82.5899 38.11 79.0899L37.91 78.8899C37.41 78.3899 36.91 77.7899 36.41 77.2899C37.01 77.4899 37.51 77.6899 38.11 77.7899C38.31 77.7899 38.61 77.8899 38.81 77.8899C40.11 80.6899 46.01 84.6899 49.91 85.3899C50.11 85.8899 50.31 86.3899 50.61 86.8899ZM35.81 76.3899C35.71 76.3899 35.71 76.2899 35.61 76.2899C33.61 73.7899 31.91 70.9899 30.61 67.9899C28.91 63.9899 28.01 59.6899 28.01 55.0899C28.01 54.7899 28.01 54.4899 28.01 54.1899C28.11 53.8899 28.31 53.5899 28.41 53.3899C28.81 52.6899 29.21 52.0899 29.71 51.5899C30.01 51.8899 30.21 52.1899 30.51 52.3899C31.91 53.5899 33.51 54.4899 35.31 55.1899C35.61 57.5899 36.21 59.9899 36.91 62.1899C37.21 63.1899 37.61 64.0899 38.01 64.9899C38.61 66.4899 39.31 67.8899 40.11 69.2899C39.11 71.8899 38.41 74.4899 38.61 77.2899C38.41 77.2899 38.21 77.2899 38.01 77.1899C37.31 76.9899 36.51 76.7899 35.81 76.3899ZM30.61 42.0899C31.31 40.4899 32.01 38.9899 32.91 37.4899C32.91 37.7899 33.01 38.1899 33.11 38.4899L33.01 38.6899C32.01 39.9899 31.21 41.6899 30.61 43.4899C29.81 45.8899 29.41 48.4899 29.61 50.7899C29.11 51.3899 28.61 51.9899 28.11 52.7899C28.31 49.0899 29.21 45.4899 30.61 42.0899ZM37.91 31.1899L38.11 30.9899C41.61 27.5899 45.81 24.8899 50.61 23.1899C51.11 22.9899 51.61 22.8899 52.11 22.6899C52.71 22.4899 53.31 22.3899 53.91 22.1899C53.21 22.8899 53.01 23.8899 53.01 24.8899C52.71 24.9899 52.41 25.0899 52.11 25.2899C51.61 25.4899 51.11 25.7899 50.61 26.0899C49.21 26.7899 48.01 27.6899 46.81 28.5899C44.91 30.0899 43.21 31.8899 41.81 33.7899C40.51 34.0899 39.21 34.3899 38.11 34.8899C36.31 35.5899 34.71 36.6899 33.51 37.9899C33.51 37.6899 33.41 37.4899 33.41 37.1899C33.41 37.0899 33.41 36.9899 33.41 36.7899C34.71 34.7899 36.21 32.8899 37.91 31.1899ZM61.91 59.6899C60.71 61.6899 59.41 63.5899 58.01 65.4899L57.91 65.5899C56.51 67.4899 55.01 69.2899 53.51 71.0899C53.01 71.0899 52.51 71.0899 52.11 71.0899C51.61 71.0899 51.11 71.0899 50.61 70.9899C47.11 70.7899 43.71 69.8899 40.61 68.5899C39.61 66.8899 38.81 65.1899 38.11 63.3899C37.91 62.8899 37.71 62.3899 37.61 61.8899C36.91 59.6899 36.41 57.4899 36.01 55.1899C36.61 53.6899 37.31 52.1899 38.11 50.8899C39.81 48.0899 41.81 45.9899 44.01 44.3899C46.21 44.5899 48.41 44.7899 50.51 45.1899L50.81 45.2899C51.21 45.3899 51.61 45.3899 52.01 45.4899C53.71 45.7899 55.51 46.2899 57.21 46.6899C57.41 47.3899 57.71 48.0899 57.91 48.7899C59.21 52.4899 60.51 56.0899 61.91 59.6899ZM58.01 25.3899C61.01 25.6899 63.71 26.3899 65.81 27.6899C66.41 29.0899 66.91 30.6899 67.31 32.3899V32.4899C67.71 34.3899 68.01 36.4899 68.21 38.4899C67.91 38.5899 67.61 38.7899 67.31 38.9899C64.01 40.7899 60.31 43.6899 58.01 46.0899C57.91 46.1899 57.81 46.2899 57.71 46.4899C55.91 45.9899 54.01 45.4899 52.21 45.1899C51.81 45.0899 51.41 45.0899 51.11 44.9899L50.71 44.8899C48.61 44.4899 46.51 44.2899 44.31 44.0899C42.91 40.9899 42.41 37.6899 42.41 34.2899C43.71 32.3899 45.41 30.6899 47.31 29.2899C48.41 28.4899 49.51 27.6899 50.81 26.9899C51.31 26.6899 51.81 26.4899 52.31 26.1899C52.81 25.8899 53.41 25.6899 54.01 25.4899C55.21 25.1899 56.61 25.2899 58.01 25.3899ZM67.21 26.8899C68.71 25.8899 71.21 25.1899 73.61 25.0899C75.51 25.5899 77.41 26.2899 79.11 27.1899C79.71 27.5899 80.41 27.8899 81.01 28.3899C81.61 28.7899 82.31 29.2899 82.91 29.7899C84.71 31.1899 86.31 32.9899 88.01 35.0899C89.41 37.7899 89.81 41.0899 89.01 43.3899C87.01 43.9899 84.91 44.4899 82.91 44.9899C81.81 45.2899 80.81 45.4899 79.71 45.7899C79.51 45.5899 79.31 45.3899 79.11 45.1899C76.21 42.1899 72.51 39.8899 68.71 38.4899C68.51 36.3899 68.21 34.3899 67.81 32.3899C67.61 31.6899 67.51 30.9899 67.21 30.2899C66.91 29.3899 66.61 28.4899 66.31 27.6899C66.51 27.3899 66.81 27.1899 67.21 26.8899ZM79.11 26.1899C80.41 26.9899 81.71 27.8899 82.91 28.8899C83.81 29.5899 84.71 30.3899 85.51 31.2899C86.21 31.9899 87.01 32.7899 87.61 33.5899C87.51 33.5899 87.41 33.4899 87.31 33.4899C85.91 31.7899 84.41 30.3899 82.91 29.1899C82.41 28.7899 81.91 28.3899 81.31 27.9899C80.61 27.4899 79.81 27.0899 79.11 26.6899C77.61 25.8899 75.91 25.2899 74.21 24.7899C73.61 24.1899 73.01 23.5899 72.21 23.0899C74.71 23.8899 77.01 24.8899 79.11 26.1899ZM92.01 35.9899C89.61 32.1899 86.51 28.8899 82.91 26.2899C81.71 25.3899 80.41 24.5899 79.11 23.8899C75.51 21.8899 71.51 20.4899 67.21 19.7899C65.41 19.4899 63.61 19.3899 61.71 19.3899C60.41 19.3899 59.21 19.4899 58.01 19.5899C56.01 19.7899 54.01 20.1899 52.11 20.6899C51.61 20.7899 51.11 20.9899 50.61 21.1899C45.91 22.6899 41.71 25.1899 38.11 28.2899C35.11 30.8899 32.61 33.9899 30.61 37.4899C27.61 42.6899 25.91 48.6899 25.91 55.0899C25.91 61.4899 27.61 67.4899 30.61 72.6899C32.61 76.1899 35.11 79.2899 38.11 81.8899C41.71 85.0899 45.91 87.4899 50.61 88.9899C51.11 89.1899 51.61 89.2899 52.11 89.4899C54.01 89.9899 56.01 90.3899 58.01 90.5899C59.21 90.6899 60.51 90.7899 61.71 90.7899C63.61 90.7899 65.41 90.6899 67.21 90.3899C71.51 89.6899 75.51 88.2899 79.11 86.2899C80.41 85.5899 81.71 84.6899 82.91 83.8899C86.51 81.2899 89.61 77.8899 92.01 74.1899C95.51 68.6899 97.51 62.0899 97.51 55.0899C97.51 48.0899 95.51 41.4899 92.01 35.9899Z" fill="black"/>
</g>
</g>
</g>
</g>
</g>
</g>
<defs>
<clipPath id="clip0_0_1">
<rect width="375" height="812" fill="white" transform="translate(-125 -302)"/>
</clipPath>
<clipPath id="clip1_0_1">
<rect width="375" height="812" fill="white" transform="translate(-125 -302)"/>
</clipPath>
<clipPath id="clip2_0_1">
<rect width="375" height="812" fill="white" transform="translate(-125 -302)"/>
</clipPath>
<clipPath id="clip3_0_1">
<rect width="179" height="224" fill="white" transform="translate(-27)"/>
</clipPath>
<clipPath id="clip4_0_1">
<rect width="179" height="224" fill="white" transform="translate(-27)"/>
</clipPath>
<clipPath id="clip5_0_1">
<rect width="123.31" height="146.24" fill="white"/>
</clipPath>
</defs>
</svg>
