<svg width="228" height="212" viewBox="0 0 228 212" fill="none" xmlns="http://www.w3.org/2000/svg">
<g clip-path="url(#clip0_0_284)">
<g clip-path="url(#clip1_0_284)">
<g clip-path="url(#clip2_0_284)">
<path fill-rule="evenodd" clip-rule="evenodd" d="M110.307 211.561C101.108 208.678 72.4149 187.536 51.2726 146.487C38.6421 122.05 28.4828 90.4733 26.698 51.4835C26.5607 49.4241 28.2082 47.6394 30.2675 47.5021C38.9166 46.9529 47.7031 45.8546 56.215 44.2072C56.0777 40.0885 55.1166 35.558 59.098 34.7343C76.259 31.0275 96.715 24.0258 108.796 12.0818C110.307 10.5716 112.64 10.7089 114.013 12.0818C126.095 23.8885 146.551 30.8902 163.712 34.7343C167.556 35.558 166.595 40.0885 166.457 44.2072C174.969 45.8546 183.893 47.0902 192.405 47.5021C194.464 47.6394 196.112 49.4241 195.974 51.4835C194.052 90.4733 184.03 122.05 171.4 146.487C150.12 187.673 121.152 208.953 112.366 211.561C111.679 211.836 110.993 211.836 110.307 211.561Z" fill="white"/>
<path fill-rule="evenodd" clip-rule="evenodd" d="M111.413 207.988C98.0958 204.144 35.3551 153.759 30.55 51.3424C43.3178 50.656 57.0466 48.4594 69.9517 44.8899H153.011C165.916 48.4594 179.645 50.5187 192.413 51.3424C187.47 153.759 124.73 204.144 111.413 207.988Z" fill="#04764E"/>
<path fill-rule="evenodd" clip-rule="evenodd" d="M111.415 199.067C100.981 195.361 51.6949 147.31 48.4 49.5605C55.6762 48.4622 62.9525 46.9521 69.9542 45.03H153.014C160.015 46.9521 167.292 48.4622 174.568 49.5605C171.136 147.31 121.849 195.361 111.415 199.067Z" fill="white"/>
<path fill-rule="evenodd" clip-rule="evenodd" d="M111.413 191.924C86.8385 174.489 65.6961 105.707 62.4012 80.3092C61.0283 70.0126 60.2046 50.3803 59.93 38.5736C80.5232 34.043 99.8809 26.3549 111.413 14.96C122.945 26.3549 142.44 34.043 162.896 38.5736C162.622 50.3803 161.798 70.0126 160.425 80.3092C157.13 105.707 136.399 174.077 111.413 191.924Z" fill="black"/>
<path fill-rule="evenodd" clip-rule="evenodd" d="M111.406 157.06L114.563 164.199L122.251 165.023L116.485 170.102L118.133 177.653L111.406 173.809L104.679 177.653L106.326 170.102L100.56 165.023L108.248 164.199L111.406 157.06Z" fill="white"/>
<path fill-rule="evenodd" clip-rule="evenodd" d="M111.409 151.288C138.455 151.288 160.558 129.185 160.558 102.139C160.558 75.0934 138.455 52.99 111.409 52.99C84.3634 52.99 62.26 75.0934 62.26 102.139C62.26 129.185 84.3634 151.288 111.409 151.288Z" fill="white"/>
<path fill-rule="evenodd" clip-rule="evenodd" d="M111.409 143.738C138.455 143.738 160.558 121.635 160.558 94.5891C160.558 67.5433 138.455 45.4399 111.409 45.4399C84.3634 45.4399 62.26 67.5433 62.26 94.5891C62.26 121.635 84.3634 143.738 111.409 143.738Z" fill="#D0D0D0"/>
<path fill-rule="evenodd" clip-rule="evenodd" d="M111.408 134.816C137.905 134.816 159.596 113.125 159.596 86.6283C159.596 60.1317 137.905 38.4402 111.408 38.4402C84.9115 38.4402 63.22 60.1317 63.22 86.6283C63.22 113.125 84.9115 134.816 111.408 134.816Z" fill="white"/>
<path fill-rule="evenodd" clip-rule="evenodd" d="M140.651 48.3301C152.184 57.1165 159.46 70.9826 159.46 86.6335C159.46 113.267 137.906 134.822 111.272 134.822C95.0717 134.822 80.6564 126.722 71.87 114.366C79.97 120.544 90.1293 124.25 101.112 124.25C127.746 124.25 149.3 102.696 149.3 76.0623C149.575 65.7657 146.28 56.1555 140.651 48.3301Z" fill="#DADADA"/>
<path fill-rule="evenodd" clip-rule="evenodd" d="M149.987 112.03C150.948 109.559 151.36 107.225 151.223 105.029C151.909 104.068 152.458 103.107 153.008 102.008C154.106 99.9489 154.93 97.7523 155.479 95.5557C156.44 92.1235 156.852 88.554 156.714 84.7099C156.989 84.4354 157.401 83.8862 157.675 83.337C157.813 84.4354 157.813 85.5337 157.813 86.632C157.813 93.9082 156.165 100.773 153.145 106.951C152.046 108.735 151.085 110.383 149.987 112.03ZM140.514 107.774C140.24 107.774 139.965 107.774 139.828 107.774C138.867 104.891 137.769 102.42 136.396 99.9489C136.121 99.3998 135.709 98.7133 135.435 98.1642C134.336 96.3794 133.101 94.5947 131.728 93.0845C133.375 89.515 134.611 86.0828 135.435 82.5133C135.984 79.9048 136.396 77.2964 136.67 74.6879C138.043 74.4133 139.416 74.0015 140.652 73.7269C143.535 73.0404 146.28 72.354 149.163 71.5303C150.399 72.354 151.909 74.1387 153.145 76.3353C154.243 78.3947 155.341 80.8659 156.028 83.7489C156.302 88.0049 155.891 91.8489 154.93 95.5557C154.518 97.2031 153.831 98.8506 153.145 100.498C152.458 102.008 151.635 103.518 150.811 104.891C147.241 106.539 143.809 107.637 140.514 107.774ZM135.297 114.913C133.238 117.934 130.904 120.405 128.845 121.778C125.824 122.739 122.392 123.425 118.96 123.7C118.136 123.7 117.313 123.837 116.626 123.837C113.194 123.837 110.174 123.425 107.977 122.601C107.428 121.915 106.879 121.091 106.33 120.405C103.996 117.11 102.074 113.403 100.838 109.285C102.76 107.088 104.545 104.754 106.33 102.557C106.604 102.283 106.879 101.871 107.016 101.596C108.938 98.9879 110.723 96.5167 112.233 93.7709C114.43 93.9082 116.763 94.0455 118.96 94.0455C122.941 94.0455 126.923 93.9082 130.904 93.4964C132.552 95.4184 134.062 97.4777 135.297 99.8116C135.435 100.086 135.572 100.224 135.709 100.498C136.945 102.832 138.043 105.303 139.004 107.912C138.18 110.246 136.808 112.717 135.297 114.913ZM135.297 126.171C134.336 126.72 133.375 127.269 132.277 127.818C132.414 127.544 132.552 127.132 132.689 126.857C133.65 126.72 134.474 126.446 135.297 126.171C135.435 126.034 135.572 126.034 135.572 125.896C135.572 126.034 135.435 126.171 135.297 126.171ZM131.179 128.505C127.335 130.29 123.353 131.525 119.097 132.349C116.626 132.761 114.155 133.035 111.547 133.035C109.762 133.035 108.114 132.898 106.467 132.761C103.721 132.486 100.975 131.937 98.3668 131.113C98.0922 131.113 97.9549 130.976 97.6803 130.839C96.9939 130.29 96.582 129.466 96.3075 128.505V128.368C96.9939 128.368 97.6803 128.23 98.3668 128.093C101.387 127.544 103.996 126.446 106.467 124.661C107.016 124.249 107.565 123.837 107.977 123.425C110.174 124.386 113.331 124.798 116.763 124.661C117.587 124.661 118.411 124.661 119.097 124.524C122.118 124.386 125.138 123.837 127.884 123.013C129.119 124.524 130.355 126.034 132.14 126.857C131.728 127.407 131.453 127.956 131.179 128.505ZM96.1702 130.29C89.7176 127.956 83.8142 124.386 79.0091 119.581L78.7346 119.307C78.0481 118.62 77.3617 117.796 76.6753 117.11C77.499 117.385 78.1854 117.659 79.0091 117.796C79.2837 117.796 79.6956 117.934 79.9702 117.934C81.7549 121.778 89.8549 127.269 95.2092 128.23C95.4837 128.917 95.7583 129.603 96.1702 130.29ZM75.8515 115.874C75.7143 115.874 75.7142 115.737 75.5769 115.737C72.8312 112.305 70.4973 108.461 68.7125 104.342C66.3786 98.8506 65.1431 92.9472 65.1431 86.632C65.1431 86.2201 65.1431 85.8082 65.1431 85.3964C65.2804 84.9845 65.5549 84.5726 65.6922 84.2981C66.2414 83.337 66.7905 82.5133 67.477 81.8269C67.8888 82.2387 68.1634 82.6506 68.5753 82.9252C70.4973 84.5726 72.6939 85.8082 75.1651 86.7693C75.577 90.0642 76.4007 93.3591 77.3617 96.3794C77.7736 97.7523 78.3227 98.9879 78.8719 100.224C79.6956 102.283 80.6566 104.205 81.7549 106.127C80.382 109.696 79.421 113.266 79.6956 117.11C79.421 117.11 79.1464 117.11 78.8719 116.973C77.9109 116.698 76.8126 116.424 75.8515 115.874ZM68.7125 68.7845C69.6736 66.5879 70.6346 64.5286 71.8702 62.4693C71.8702 62.8811 72.0075 63.4303 72.1447 63.8421L72.0075 64.1167C70.6346 65.9015 69.5363 68.2354 68.7125 70.7065C67.6142 74.0015 67.0651 77.5709 67.3397 80.7286C66.6532 81.5523 65.9668 82.376 65.2803 83.4743C65.5549 78.3947 66.7905 73.4523 68.7125 68.7845ZM78.7346 53.8201L79.0091 53.5455C83.8142 48.8777 89.5803 45.171 96.1702 42.8371C96.8566 42.5625 97.543 42.4252 98.2295 42.1506C99.0532 41.8761 99.877 41.7388 100.701 41.4642C99.7397 42.4252 99.4651 43.7981 99.4651 45.171C99.0532 45.3083 98.6414 45.4455 98.2295 45.7201C97.543 45.9947 96.8566 46.4066 96.1702 46.8184C94.2481 47.7794 92.6007 49.015 90.9532 50.2506C88.3448 52.3099 86.0109 54.7811 84.0888 57.3896C82.3041 57.8014 80.5193 58.2133 79.0091 58.8998C76.538 59.8608 74.3414 61.371 72.6939 63.1557C72.6939 62.7438 72.5566 62.4693 72.5566 62.0574C72.5566 61.9201 72.5566 61.7828 72.5566 61.5082C74.3414 58.7625 76.4007 56.154 78.7346 53.8201ZM111.684 92.9472C110.036 95.693 108.252 98.3015 106.33 100.91L106.192 101.047C104.27 103.656 102.211 106.127 100.152 108.598C99.4651 108.598 98.7786 108.598 98.2295 108.598C97.543 108.598 96.8566 108.598 96.1702 108.461C91.3651 108.186 86.6973 106.951 82.4414 105.166C81.0685 102.832 79.9702 100.498 79.0091 98.0269C78.7346 97.3404 78.46 96.654 78.3227 95.9676C77.3617 92.9472 76.6753 89.9269 76.1261 86.7693C76.9498 84.7099 77.9108 82.6506 79.0091 80.8659C81.343 77.0218 84.0888 74.1387 87.1092 71.9421C90.1295 72.2167 93.1498 72.4913 96.0329 73.0404L96.4448 73.1777C96.9939 73.315 97.5431 73.315 98.0922 73.4523C100.426 73.8642 102.897 74.5506 105.231 75.0998C105.506 76.0608 105.918 77.0218 106.192 77.9828C107.977 83.0625 109.762 88.0048 111.684 92.9472ZM106.33 45.8574C110.448 46.2693 114.155 47.2303 117.038 49.015C117.862 50.9371 118.548 53.1337 119.097 55.4676V55.6049C119.647 58.2133 120.058 61.0964 120.333 63.8421C119.921 63.9794 119.509 64.254 119.097 64.5286C114.567 66.9998 109.487 70.9811 106.33 74.276C106.192 74.4133 106.055 74.5506 105.918 74.8252C103.446 74.1388 100.838 73.4523 98.3668 73.0404C97.8176 72.9032 97.2685 72.9032 96.8566 72.7659L96.3075 72.6286C93.4244 72.0794 90.5414 71.8048 87.521 71.5303C85.599 67.2743 84.9125 62.7438 84.9125 58.076C86.6973 55.4675 89.0312 53.1336 91.6397 51.2116C93.1498 50.1133 94.66 49.015 96.4448 48.054C97.1312 47.6421 97.8176 47.3676 98.5041 46.9557C99.1905 46.5438 100.014 46.2693 100.838 45.9947C102.485 45.5828 104.408 45.7201 106.33 45.8574ZM118.96 47.9167C121.019 46.5438 124.452 45.5828 127.746 45.4455C130.355 46.132 132.963 47.093 135.297 48.3286C136.121 48.8777 137.082 49.2896 137.906 49.976C138.73 50.5252 139.691 51.2116 140.514 51.8981C142.985 53.8201 145.182 56.2913 147.516 59.1743C149.438 62.8811 149.987 67.4116 148.889 70.5693C146.143 71.393 143.26 72.0794 140.514 72.7659C139.004 73.1777 137.631 73.4523 136.121 73.8642C135.846 73.5896 135.572 73.315 135.297 73.0404C131.316 68.9218 126.236 65.7642 121.019 63.8421C120.745 60.9591 120.333 58.2133 119.784 55.4676C119.509 54.5065 119.372 53.5455 118.96 52.5845C118.548 51.3489 118.136 50.1133 117.724 49.015C117.999 48.6032 118.411 48.3286 118.96 47.9167ZM135.297 46.9557C137.082 48.054 138.867 49.2896 140.514 50.6625C141.75 51.6235 142.985 52.7218 144.084 53.9574C145.045 54.9184 146.143 56.0167 146.967 57.115C146.83 57.115 146.692 56.9777 146.555 56.9777C144.633 54.6438 142.574 52.7218 140.514 51.0743C139.828 50.5252 139.141 49.976 138.318 49.4269C137.357 48.7404 136.258 48.1913 135.297 47.6421C133.238 46.5438 130.904 45.7201 128.57 45.0337C127.747 44.2099 126.923 43.3862 125.824 42.6998C129.257 43.7981 132.414 45.171 135.297 46.9557ZM153.008 60.4099C149.713 55.193 145.457 50.6625 140.514 47.093C138.867 45.8574 137.082 44.7591 135.297 43.7981C130.355 41.0523 124.863 39.1303 118.96 38.1693C116.489 37.7574 114.018 37.6201 111.409 37.6201C109.624 37.6201 107.977 37.7574 106.33 37.8947C103.584 38.1693 100.838 38.7184 98.2295 39.4049C97.543 39.5422 96.8566 39.8167 96.1702 40.0913C89.7176 42.1506 83.9515 45.5828 79.0091 49.8387C74.8905 53.4082 71.4583 57.6642 68.7125 62.4693C64.5939 69.6082 62.26 77.8455 62.26 86.632C62.26 95.4184 64.5939 103.656 68.7125 110.795C71.4583 115.6 74.8905 119.856 79.0091 123.425C83.9515 127.818 89.7176 131.113 96.1702 133.173C96.8566 133.447 97.543 133.585 98.2295 133.859C100.838 134.546 103.584 135.095 106.33 135.369C107.977 135.507 109.762 135.644 111.409 135.644C114.018 135.644 116.489 135.507 118.96 135.095C124.863 134.134 130.355 132.212 135.297 129.466C137.082 128.505 138.867 127.269 140.514 126.171C145.457 122.602 149.713 117.934 153.008 112.854C157.813 105.303 160.558 96.2421 160.558 86.632C160.558 77.0218 157.813 67.9608 153.008 60.4099Z" fill="black"/>
</g>
</g>
<path fill-rule="evenodd" clip-rule="evenodd" d="M10.6046 127.82C16.4637 127.82 21.2093 132.566 21.2093 138.425C21.2093 144.284 16.4637 149.029 10.6046 149.029C4.75088 149.029 0 144.284 0 138.425C0 132.566 4.75088 127.82 10.6046 127.82Z" fill="#04764E"/>
<path fill-rule="evenodd" clip-rule="evenodd" d="M214.746 64.1899C222.068 64.1899 228.002 70.1232 228.002 77.4457C228.002 84.7682 222.068 90.7015 214.746 90.7015C207.423 90.7015 201.49 84.7682 201.49 77.4457C201.49 70.1232 207.423 64.1899 214.746 64.1899Z" fill="#04764E" fill-opacity="0.19"/>
<path fill-rule="evenodd" clip-rule="evenodd" d="M217.392 127.82C214.465 127.82 212.09 130.196 212.09 133.122C212.09 136.049 214.465 138.425 217.392 138.425C220.319 138.425 222.695 136.049 222.695 133.122C222.695 130.196 220.319 127.82 217.392 127.82Z" fill="#43434A"/>
<path fill-rule="evenodd" clip-rule="evenodd" d="M201.492 180.84C198.565 180.84 196.19 183.216 196.19 186.142C196.19 189.069 198.565 191.445 201.492 191.445C204.419 191.445 206.795 189.069 206.795 186.142C206.795 183.216 204.419 180.84 201.492 180.84Z" fill="#43434A"/>
<path fill-rule="evenodd" clip-rule="evenodd" d="M158.605 5.30232C158.605 2.37544 156.229 0 153.302 0C150.375 0 148 2.37544 148 5.30232C148 8.22921 150.375 10.6046 153.302 10.6046C156.229 10.6046 158.605 8.22921 158.605 5.30232Z" fill="#43434A"/>
<path fill-rule="evenodd" clip-rule="evenodd" d="M26.5123 170.24C23.5855 170.24 21.21 172.615 21.21 175.542C21.21 178.469 23.5855 180.845 26.5123 180.845C29.4392 180.845 31.8146 178.469 31.8146 175.542C31.8146 172.615 29.4392 170.24 26.5123 170.24Z" fill="#43434A"/>
<path fill-rule="evenodd" clip-rule="evenodd" d="M65.6046 5.30232C65.6046 2.37544 63.2292 0 60.3023 0C57.3754 0 55 2.37544 55 5.30232C55 8.22921 57.3754 10.6046 60.3023 10.6046C63.2292 10.6046 65.6046 8.22921 65.6046 5.30232Z" fill="#43434A"/>
<path fill-rule="evenodd" clip-rule="evenodd" d="M10.6023 58.8899C7.67543 58.8899 5.29999 61.2653 5.29999 64.1922C5.29999 67.1191 7.67543 69.4945 10.6023 69.4945C13.5292 69.4945 15.9046 67.1191 15.9046 64.1922C15.9046 61.2653 13.5292 58.8899 10.6023 58.8899Z" fill="#43434A"/>
</g>
<defs>
<clipPath id="clip0_0_284">
<rect width="228" height="211.77" fill="white"/>
</clipPath>
<clipPath id="clip1_0_284">
<rect width="169.29" height="200.77" fill="white" transform="translate(26.69 11)"/>
</clipPath>
<clipPath id="clip2_0_284">
<rect width="169.29" height="200.77" fill="white" transform="translate(26.69 11)"/>
</clipPath>
</defs>
</svg>
