<svg width="23" height="23" viewBox="0 0 23 23" fill="none" xmlns="http://www.w3.org/2000/svg">
<g id="iconfinder_calendar_115762 1" clip-path="url(#clip0_0_1470)">
<mask id="mask0_0_1470" style="mask-type:luminance" maskUnits="userSpaceOnUse" x="0" y="0" width="23" height="23">
<path id="iconfinder_calendar_115762 1 clipping mask" fill-rule="evenodd" clip-rule="evenodd" d="M0 0H23V23H0V0Z" fill="white"/>
</mask>
<g mask="url(#mask0_0_1470)">
<g id="iconfinder_calendar_115762 1_2">
<g id="calendar 1">
<path id="Vector" fill-rule="evenodd" clip-rule="evenodd" d="M21.5625 21.0831C21.5625 21.3476 21.3476 21.5625 21.0838 21.5625H1.91691C1.65241 21.5625 1.4375 21.3476 1.4375 21.0831V4.07244C1.4375 3.80866 1.65241 3.59375 1.91691 3.59375H5.03125V5.03125C5.03125 5.42872 5.35325 5.75 5.75 5.75C6.14675 5.75 6.46875 5.42872 6.46875 5.03125V3.59375H10.7812V5.03125C10.7812 5.42872 11.1032 5.75 11.5 5.75C11.8968 5.75 12.2188 5.42872 12.2188 5.03125V3.59375H16.5312V5.03125C16.5312 5.42872 16.8525 5.75 17.25 5.75C17.6475 5.75 17.9688 5.42872 17.9688 5.03125V3.59375H21.0838C21.3476 3.59375 21.5625 3.80866 21.5625 4.07244V21.0831ZM21.0838 2.15625H17.9688V0.71875C17.9688 0.32128 17.6475 0 17.25 0C16.8525 0 16.5312 0.32128 16.5312 0.71875V2.15625H12.2188V0.71875C12.2188 0.32128 11.8968 0 11.5 0C11.1032 0 10.7812 0.32128 10.7812 0.71875V2.15625H6.46875V0.71875C6.46875 0.32128 6.14675 0 5.75 0C5.35325 0 5.03125 0.32128 5.03125 0.71875V2.15625H1.91691C0.85819 2.15625 0 3.01372 0 4.07244V21.0831C0 22.1418 0.85819 23 1.91691 23H21.0838C22.1425 23 23 22.1418 23 21.0831V4.07244C23 3.01372 22.1425 2.15625 21.0838 2.15625Z" fill="#333332"/>
<path id="Vector_2" fill-rule="evenodd" clip-rule="evenodd" d="M7.90503 8.63H5.03003V10.7863H7.90503V8.63Z" fill="#333332"/>
<path id="Vector_3" fill-rule="evenodd" clip-rule="evenodd" d="M7.90503 12.22H5.03003V14.3763H7.90503V12.22Z" fill="#333332"/>
<path id="Vector_4" fill-rule="evenodd" clip-rule="evenodd" d="M7.90503 15.81H5.03003V17.9662H7.90503V15.81Z" fill="#333332"/>
<path id="Vector_5" fill-rule="evenodd" clip-rule="evenodd" d="M12.9351 15.81H10.0601V17.9662H12.9351V15.81Z" fill="#333332"/>
<path id="Vector_6" fill-rule="evenodd" clip-rule="evenodd" d="M12.9351 12.22H10.0601V14.3763H12.9351V12.22Z" fill="#333332"/>
<path id="Vector_7" fill-rule="evenodd" clip-rule="evenodd" d="M12.9351 8.63H10.0601V10.7863H12.9351V8.63Z" fill="#333332"/>
<path id="Vector_8" fill-rule="evenodd" clip-rule="evenodd" d="M17.965 15.81H15.09V17.9662H17.965V15.81Z" fill="#333332"/>
<path id="Vector_9" fill-rule="evenodd" clip-rule="evenodd" d="M17.965 12.22H15.09V14.3763H17.965V12.22Z" fill="#333332"/>
<path id="Vector_10" fill-rule="evenodd" clip-rule="evenodd" d="M17.965 8.63H15.09V10.7863H17.965V8.63Z" fill="#333332"/>
</g>
</g>
</g>
</g>
<defs>
<clipPath id="clip0_0_1470">
<rect width="23" height="23" fill="white"/>
</clipPath>
</defs>
</svg>
