<svg width="19" height="19" viewBox="0 0 19 19" fill="none" xmlns="http://www.w3.org/2000/svg">
<g id="iconfinder_1_Youtube_colored_svg_5296521 1" clip-path="url(#clip0_0_1138)">
<mask id="mask0_0_1138" style="mask-type:luminance" maskUnits="userSpaceOnUse" x="0" y="0" width="19" height="19">
<path id="iconfinder_1_Youtube_colored_svg_5296521 1 clipping mask" fill-rule="evenodd" clip-rule="evenodd" d="M0 0H19V19H0V0Z" fill="white"/>
</mask>
<g mask="url(#mask0_0_1138)">
<g id="iconfinder_1_Youtube_colored_svg_5296521 1_2">
<g id="Group">
<path id="Vector" fill-rule="evenodd" clip-rule="evenodd" d="M18.6029 4.92681C18.3844 4.10929 17.7407 3.46555 16.9232 3.24709C15.4413 2.84998 9.49993 2.84998 9.49993 2.84998C9.49993 2.84998 3.55853 2.84998 2.07664 3.24709C1.25931 3.46555 0.61542 4.10929 0.39692 4.92681C0 6.40851 0 9.50002 0 9.50002C0 9.50002 0 12.5915 0.39692 14.0731C0.61542 14.8906 1.25931 15.5345 2.07664 15.753C3.55853 16.1499 9.49993 16.1499 9.49993 16.1499C9.49993 16.1499 15.4413 16.1499 16.9232 15.753C17.7407 15.5345 18.3844 14.8906 18.6029 14.0731C19 12.5915 19 9.50002 19 9.50002C19 9.50002 19 6.40851 18.6029 4.92681Z" fill="#ED1F24"/>
<path id="Vector_2" fill-rule="evenodd" clip-rule="evenodd" d="M7.59998 12.35L12.5362 9.5L7.59998 6.64996V12.35Z" fill="white"/>
</g>
</g>
</g>
</g>
<defs>
<clipPath id="clip0_0_1138">
<rect width="19" height="19" fill="white"/>
</clipPath>
</defs>
</svg>
