<svg width="25" height="24" viewBox="0 0 25 24" fill="none" xmlns="http://www.w3.org/2000/svg">
<g id="btnNotifications" clip-path="url(#clip0_0_937)">
<g id="bell">
<path id="shape01" fill-rule="evenodd" clip-rule="evenodd" d="M10.9788 2.99652C10.4826 2.99652 10.08 2.59385 10.08 2.0977V1.19887C10.08 0.702719 10.4826 0.300049 10.9788 0.300049C11.4749 0.300049 11.8776 0.702719 11.8776 1.19887V2.0977C11.8776 2.59385 11.4749 2.99652 10.9788 2.99652Z" fill="white"/>
<path id="shape02" fill-rule="evenodd" clip-rule="evenodd" d="M18.8173 10.8417C18.3212 10.8417 17.9185 10.439 17.9185 9.94287C17.9185 6.29006 14.9524 3.17743 11.3068 3.00486C7.65663 2.83633 4.40244 5.6474 4.05864 9.27909C4.03796 9.49616 4.02763 9.71907 4.02763 9.94287C4.02763 10.439 3.62495 10.8417 3.1288 10.8417C2.63265 10.8417 2.22998 10.439 2.22998 9.94287C2.22998 9.66244 2.24301 9.38201 2.26908 9.10966C2.70186 4.53645 6.79915 0.993293 11.3917 1.20946C15.982 1.42653 19.7162 5.34449 19.7162 9.94287C19.7162 10.4395 19.3135 10.8417 18.8173 10.8417Z" fill="white"/>
<path id="shape03" fill-rule="evenodd" clip-rule="evenodd" d="M20.5042 16.9738C20.2826 16.9738 20.0601 16.892 19.8862 16.728C18.6369 15.5451 17.92 13.8796 17.92 12.1588C17.92 11.6627 18.3227 11.26 18.8189 11.26C19.315 11.26 19.7177 11.6627 19.7177 12.1588C19.7177 13.388 20.2296 14.578 21.1221 15.4225C21.4825 15.7636 21.4983 16.3325 21.1572 16.6934C20.9805 16.8794 20.7424 16.9738 20.5042 16.9738Z" fill="white"/>
<path id="shape04" fill-rule="evenodd" clip-rule="evenodd" d="M1.44894 16.9738C1.2103 16.9738 0.972559 16.8799 0.795939 16.6929C0.454839 16.3325 0.470569 15.7636 0.830989 15.4225C1.72352 14.578 2.2354 13.3884 2.2354 12.1588C2.2354 11.6627 2.63807 11.26 3.13422 11.26C3.63037 11.26 4.03305 11.6627 4.03305 12.1588C4.03305 13.8805 3.31624 15.546 2.06687 16.728C1.8925 16.892 1.67049 16.9738 1.44893 16.9738H1.44894Z" fill="white"/>
<path id="shape05" fill-rule="evenodd" clip-rule="evenodd" d="M10.9741 23.673C8.53829 23.673 6.47998 21.6147 6.47998 19.1788C6.47998 18.6827 6.88265 18.28 7.3788 18.28C7.87495 18.28 8.27763 18.6827 8.27763 19.1788C8.27763 20.6403 9.51261 21.8753 10.9741 21.8753C12.4356 21.8753 13.6706 20.6403 13.6706 19.1788C13.6706 18.6827 14.0732 18.28 14.5694 18.28C15.0655 18.28 15.4682 18.6827 15.4682 19.1788C15.4682 21.6147 13.4099 23.673 10.9741 23.673Z" fill="white"/>
<path id="shape06" fill-rule="evenodd" clip-rule="evenodd" d="M2.68032 20.0704C1.5851 20.0704 0.61078 19.4008 0.19777 18.3645C-0.21569 17.3268 0.03104 16.1695 0.8265 15.4163C1.18692 15.0748 1.75543 15.0905 2.09743 15.4509C2.43854 15.8114 2.42326 16.3803 2.06283 16.7219C1.66914 17.0949 1.81385 17.5645 1.86778 17.6993C1.92126 17.8333 2.13833 18.2728 2.68032 18.2728C3.17647 18.2728 3.57914 18.6754 3.57914 19.1716C3.57914 19.6677 3.17692 20.0704 2.68032 20.0704Z" fill="white"/>
<path id="shape07" fill-rule="evenodd" clip-rule="evenodd" d="M19.2688 20.0709C18.7727 20.0709 18.37 19.6683 18.37 19.1721C18.37 18.676 18.7727 18.2733 19.2688 18.2733C19.8113 18.2733 20.0288 17.832 20.0827 17.6967C20.1362 17.5623 20.2804 17.0945 19.8868 16.7219C19.5263 16.3804 19.5106 15.8119 19.8517 15.451C20.1933 15.0906 20.7618 15.0748 21.1226 15.4159C21.9181 16.1691 22.1653 17.3255 21.7527 18.3614C21.3392 19.4 20.364 20.0709 19.2688 20.0709Z" fill="white"/>
<path id="shape08" fill-rule="evenodd" clip-rule="evenodd" d="M3.12881 13.0515C2.63266 13.0515 2.22998 12.6488 2.22998 12.1527V9.93886C2.22998 9.44271 2.63266 9.04004 3.12881 9.04004C3.62496 9.04004 4.02764 9.44271 4.02764 9.93886V12.1527C4.02764 12.6488 3.62541 13.0515 3.12881 13.0515Z" fill="white"/>
<path id="shape09" fill-rule="evenodd" clip-rule="evenodd" d="M18.8189 13.0515C18.3227 13.0515 17.92 12.6488 17.92 12.1527V9.93886C17.92 9.44271 18.3227 9.04004 18.8189 9.04004C19.315 9.04004 19.7177 9.44271 19.7177 9.93886V12.1527C19.7177 12.6488 19.315 13.0515 18.8189 13.0515Z" fill="white"/>
<path id="shape10" fill-rule="evenodd" clip-rule="evenodd" d="M19.2666 20.0777H2.67885C2.1827 20.0777 1.78003 19.675 1.78003 19.1788C1.78003 18.6827 2.1827 18.28 2.67885 18.28H19.2662C19.7623 18.28 20.165 18.6827 20.165 19.1788C20.165 19.675 19.7628 20.0777 19.2666 20.0777Z" fill="white"/>
</g>
<g id="dot">
<mask id="mask0_0_937" style="mask-type:luminance" maskUnits="userSpaceOnUse" x="13" y="0" width="12" height="11">
<path id="Mask" fill-rule="evenodd" clip-rule="evenodd" d="M24.1559 5.39294C24.1559 8.37138 21.7414 10.7859 18.7629 10.7859C15.7845 10.7859 13.37 8.37138 13.37 5.39294C13.37 2.4145 15.7845 0 18.7629 0C21.7414 0 24.1559 2.4145 24.1559 5.39294Z" fill="white"/>
</mask>
<g mask="url(#mask0_0_937)">
<path id="dot_2" fill-rule="evenodd" clip-rule="evenodd" d="M24.1559 5.39294C24.1559 8.37138 21.7414 10.7859 18.7629 10.7859C15.7845 10.7859 13.37 8.37138 13.37 5.39294C13.37 2.4145 15.7845 0 18.7629 0C21.7414 0 24.1559 2.4145 24.1559 5.39294Z" fill="#E45D32"/>
<path id="dot-border" fill-rule="evenodd" clip-rule="evenodd" d="M18.7629 1C16.3368 1 14.37 2.96679 14.37 5.39294C14.37 7.81909 16.3368 9.78588 18.7629 9.78588C21.1891 9.78588 23.1559 7.81909 23.1559 5.39294C23.1559 2.96679 21.1891 1 18.7629 1ZM18.7629 11.7859C15.2322 11.7859 12.37 8.92366 12.37 5.39294C12.37 1.86222 15.2322 -1 18.7629 -1C22.2937 -1 25.1559 1.86222 25.1559 5.39294C25.1559 8.92366 22.2937 11.7859 18.7629 11.7859Z" fill="white"/>
</g>
</g>
</g>
<defs>
<clipPath id="clip0_0_937">
<rect width="24.16" height="23.67" fill="white"/>
</clipPath>
</defs>
</svg>
