<svg width="20" height="21" viewBox="0 0 20 21" fill="none" xmlns="http://www.w3.org/2000/svg">
<g id="Group 86">
<g id="Vector">
<path id="Vector-border" fill-rule="evenodd" clip-rule="evenodd" d="M10.6139 -0.78935C10.2528 -1.07022 9.74717 -1.07022 9.38606 -0.78935L0.38606 6.21065C0.14247 6.4001 0 6.69141 0 7V18C0 18.7957 0.31607 19.5587 0.87868 20.1213C1.44129 20.6839 2.20435 21 3 21H17C17.7957 21 18.5587 20.6839 19.1213 20.1213C19.6839 19.5587 20 18.7957 20 18V7C20 6.69141 19.8575 6.4001 19.6139 6.21065L10.6139 -0.78935ZM10 1.26686L18 7.48905V18C18 18.2652 17.8946 18.5196 17.7071 18.7071C17.5196 18.8946 17.2652 19 17 19H3C2.73478 19 2.48043 18.8946 2.29289 18.7071C2.10536 18.5196 2 18.2652 2 18V7.48908L10 1.26686Z" fill="#04764E"/>
</g>
<g id="Vector_2">
<path id="Vector-border_2" fill-rule="evenodd" clip-rule="evenodd" d="M8 11H12V20C12 20.5523 12.4477 21 13 21C13.5523 21 14 20.5523 14 20V10C14 9.44772 13.5523 9 13 9H7C6.44772 9 6 9.44772 6 10V20C6 20.5523 6.44772 21 7 21C7.55229 21 8 20.5523 8 20V11Z" fill="#04764E"/>
</g>
</g>
</svg>
