<svg width="24" height="14" viewBox="0 0 24 14" fill="none" xmlns="http://www.w3.org/2000/svg">
<path fill-rule="evenodd" clip-rule="evenodd" d="M0.4393 8.06058L5.7539 13.3752C6.0468 13.6681 6.4307 13.8146 6.8146 13.8146C7.1985 13.8146 7.5824 13.6681 7.8753 13.3752C8.461 12.7894 8.461 11.8397 7.8753 11.2539L5.1213 8.49994H22.5C23.3284 8.49994 24 7.82836 24 6.99994C24 6.17152 23.3284 5.49994 22.5 5.49994H5.1213L7.8753 2.74604C8.461 2.16024 8.461 1.2105 7.8753 0.62471C7.2894 0.0389096 6.3398 0.0389096 5.7539 0.62471L0.4393 5.9393C-0.1464 6.52505 -0.1464 7.47483 0.4393 8.06058Z" fill="#373737"/>
</svg>
