<svg width="29" height="21" viewBox="0 0 29 21" fill="none" xmlns="http://www.w3.org/2000/svg">
<g id="Group">
<path id="Vector" fill-rule="evenodd" clip-rule="evenodd" d="M9.90833 13.544H7.4388V11.7202H9.90833V13.544ZM10.4634 10.61H6.89505C6.58919 10.61 6.33997 10.8592 6.33997 11.1651V14.0991C6.33997 14.4049 6.58919 14.6542 6.89505 14.6542H10.4634C10.7693 14.6542 11.0185 14.4049 11.0185 14.0991V11.1651C11.0185 10.8592 10.7693 10.61 10.4634 10.61Z" fill="black"/>
<path id="Vector_2" fill-rule="evenodd" clip-rule="evenodd" d="M15.7384 13.544H13.2689V11.7202H15.7384V13.544ZM16.2935 10.61H12.7251C12.4193 10.61 12.17 10.8592 12.17 11.1651V14.0991C12.17 14.4049 12.4193 14.6542 12.7251 14.6542H16.2935C16.5993 14.6542 16.8486 14.4049 16.8486 14.0991V11.1651C16.8486 10.8592 16.5993 10.61 16.2935 10.61Z" fill="black"/>
<path id="Vector_3" fill-rule="evenodd" clip-rule="evenodd" d="M21.5684 13.544H19.0988V11.7202H21.5684V13.544ZM22.1234 10.61H18.5551C18.2492 10.61 18 10.8592 18 11.1651V14.0991C18 14.4049 18.2492 14.6542 18.5551 14.6542H22.1234C22.4293 14.6542 22.6785 14.4049 22.6785 14.0991V11.1651C22.6785 10.8592 22.4293 10.61 22.1234 10.61Z" fill="black"/>
<path id="Vector_4" fill-rule="evenodd" clip-rule="evenodd" d="M24.8766 7.12407C24.8086 7.19204 24.7293 7.26001 24.6387 7.32798C24.5707 7.36196 24.5141 7.39595 24.4575 7.45259C24.1176 7.65649 23.7325 7.76978 23.336 7.76978C22.7582 7.76978 22.2145 7.54321 21.7954 7.12407C20.2434 5.62876 17.6266 5.62876 16.0633 7.12407C15.6329 7.53188 15.0778 7.75845 14.5 7.76978C13.9223 7.76978 13.3559 7.54321 12.9254 7.12407C12.1325 6.37642 11.0789 6.00259 10.0368 6.00259C8.99459 6.00259 7.95241 6.37642 7.19342 7.1354C6.78561 7.54321 6.24186 7.76978 5.66413 7.76978C5.27897 7.76978 4.90514 7.66782 4.5653 7.47525C4.50866 7.40728 4.42936 7.36196 4.35006 7.32798C4.27077 7.27134 4.19147 7.20337 4.11217 7.12407C3.54577 6.59165 2.83209 6.22915 2.08444 6.08189L3.72702 1.13149H25.2844L26.927 6.08189C26.1567 6.22915 25.4543 6.58032 24.8766 7.12407ZM24.2989 16.5377H4.70124L4.71256 8.73267C5.01842 8.82329 5.33561 8.87993 5.66413 8.87993C6.53639 8.87993 7.36334 8.54009 7.98639 7.91704C9.08522 6.81821 10.9997 6.82954 12.1664 7.92837C12.8008 8.54009 13.6278 8.87993 14.5 8.87993C15.3723 8.87993 16.1993 8.54009 16.8336 7.92837C17.9778 6.82954 19.8922 6.82954 21.0137 7.91704C21.6368 8.54009 22.4524 8.87993 23.336 8.87993C23.6645 8.87993 23.9817 8.82329 24.2989 8.73267V16.5377ZM24.2989 19.8682H4.70124V17.6366H24.2875L24.2989 19.8682ZM28.1618 6.27446L26.2133 0.39517C26.134 0.16861 25.9301 0.0100098 25.6922 0.0100098H3.3192C3.08131 0.0100098 2.86608 0.15728 2.79811 0.39517L0.83834 6.27446C0.79303 6.35376 0.77037 6.43306 0.77037 6.53501C0.75904 6.84087 1.01959 7.09009 1.32545 7.10142C2.08444 7.12407 2.80944 7.40728 3.34186 7.91704C3.42116 7.99634 3.51178 8.07564 3.60241 8.15493L3.59108 20.4346C3.59108 20.5819 3.64772 20.7178 3.74967 20.8311C3.85163 20.933 3.99889 20.9897 4.14616 20.9897H24.8539C25.1598 20.9897 25.409 20.7405 25.409 20.4346V8.1436C25.4883 8.07564 25.5789 8.00767 25.6469 7.92837C26.202 7.4186 26.9157 7.12407 27.686 7.10142C27.9918 7.09009 28.2297 6.82954 28.2297 6.53501C28.2297 6.44439 28.1957 6.35376 28.1618 6.27446Z" fill="black"/>
</g>
</svg>
