<svg width="24" height="19" viewBox="0 0 24 19" fill="none" xmlns="http://www.w3.org/2000/svg">
<g id="icMenu" clip-path="url(#clip0_0_891)">
<path id="bar" fill-rule="evenodd" clip-rule="evenodd" d="M0 1.5C0 0.67157 0.67157 0 1.5 0H18.5C19.3284 0 20 0.67157 20 1.5C20 2.32843 19.3284 3 18.5 3H1.5C0.67157 3 0 2.32843 0 1.5Z" fill="white"/>
<path id="bar_2" fill-rule="evenodd" clip-rule="evenodd" d="M0 17.5C0 16.6716 0.67157 16 1.5 16H18.5C19.3284 16 20 16.6716 20 17.5C20 18.3284 19.3284 19 18.5 19H1.5C0.67157 19 0 18.3284 0 17.5Z" fill="white"/>
<path id="bar_3" fill-rule="evenodd" clip-rule="evenodd" d="M4 9.5C4 8.67157 4.67157 8 5.5 8H22.5C23.3284 8 24 8.67157 24 9.5C24 10.3284 23.3284 11 22.5 11H5.5C4.67157 11 4 10.3284 4 9.5Z" fill="white"/>
</g>
<defs>
<clipPath id="clip0_0_891">
<rect width="24" height="19" fill="white"/>
</clipPath>
</defs>
</svg>
