<svg width="20" height="16" viewBox="0 0 20 16" fill="none" xmlns="http://www.w3.org/2000/svg">
<g id="Group 8">
<path id="Rectangle 3 Copy 2" fill-rule="evenodd" clip-rule="evenodd" d="M9.33495 15.635C8.98149 15.635 8.69495 15.3485 8.69495 14.995V10.1827C8.69495 9.82924 8.98149 9.5427 9.33495 9.5427C9.68841 9.5427 9.97495 9.82924 9.97495 10.1827V14.995C9.97495 15.3485 9.68841 15.635 9.33495 15.635Z" fill="#5B6897"/>
<g id="Rectangle Copy 2">
<mask id="mask0_0_965" style="mask-type:luminance" maskUnits="userSpaceOnUse" x="5" y="14" width="8" height="2">
<path id="Mask" fill-rule="evenodd" clip-rule="evenodd" d="M5.68994 15.14C5.68994 14.8639 5.9138 14.64 6.18994 14.64H12.2814C12.5575 14.64 12.7814 14.8639 12.7814 15.14C12.7814 15.4162 12.5575 15.64 12.2814 15.64H6.18994C5.9138 15.64 5.68994 15.4162 5.68994 15.14Z" fill="white"/>
</mask>
<g mask="url(#mask0_0_965)">
<path id="Rectangle Copy 2-border" fill-rule="evenodd" clip-rule="evenodd" d="M4.68994 15.14C4.68994 14.3116 5.36151 13.64 6.18994 13.64H12.2814C13.1098 13.64 13.7814 14.3116 13.7814 15.14C13.7814 15.9684 13.1098 16.64 12.2814 16.64H6.18994C5.36151 16.64 4.68994 15.9684 4.68994 15.14Z" fill="#5B6897"/>
</g>
</g>
<g id="Path">
<path id="Path-border" fill-rule="evenodd" clip-rule="evenodd" d="M14.5136 1.09998H4.68994V5.39038C4.68994 7.63118 6.50647 9.44771 8.74728 9.44771L10.4563 9.44771C12.6971 9.44771 14.5136 7.63118 14.5136 5.39038V1.09998ZM15.5136 5.39038C15.5136 8.18347 13.2494 10.4477 10.4563 10.4477L8.74728 10.4477C5.95419 10.4477 3.68994 8.18347 3.68994 5.39038V0.599976V0.0999756H4.18994H15.0136H15.5136V0.599976V5.39038Z" fill="#5B6897"/>
</g>
<g id="Path Copy">
<path id="Path Copy-border" fill-rule="evenodd" clip-rule="evenodd" d="M18.125 6.19084V2.40491H16.7786C16.1468 2.40491 15.5219 3.01658 15.5219 3.92004V4.67571C15.5219 5.57917 16.1468 6.19084 16.7786 6.19084H18.125ZM16.7786 7.19084C15.47 7.19084 14.5219 5.99811 14.5219 4.67571L14.5219 3.92004C14.5219 2.59765 15.47 1.40491 16.7786 1.40491H18.625H19.125V1.90491V6.69084V7.19084H18.625H16.7786Z" fill="#5B6897"/>
</g>
<g id="Path Copy 2">
<path id="Path Copy 2-border" fill-rule="evenodd" clip-rule="evenodd" d="M2.34802 2.41314C1.71627 2.41314 1.0914 3.02481 1.0914 3.92828V4.68394C1.0914 5.5874 1.71627 6.19907 2.34802 6.19907H3.69447V2.41314H2.34802ZM2.34802 1.41314H4.19447H4.69447V1.91314L4.19447 1.91314H4.69447V6.69908V7.19907H4.19447H2.34802C1.03946 7.19907 0.0913987 6.00633 0.0913987 4.68394V3.92828C0.0913987 2.60588 1.03946 1.41314 2.34802 1.41314Z" fill="#5B6897"/>
</g>
</g>
</svg>
