<svg width="17" height="18" viewBox="0 0 17 18" fill="none" xmlns="http://www.w3.org/2000/svg">
<g id="Group 12">
<g id="Rectangle 6">
<mask id="mask0_0_1011" style="mask-type:luminance" maskUnits="userSpaceOnUse" x="0" y="3" width="17" height="15">
<path id="Mask" fill-rule="evenodd" clip-rule="evenodd" d="M0 5.45005C0 4.12457 1.07452 3.05005 2.4 3.05005H14.4C15.7255 3.05005 16.8 4.12457 16.8 5.45005V15.5622C16.8 16.8877 15.7255 17.9622 14.4 17.9622H2.4C1.07452 17.9622 0 16.8877 0 15.5622V5.45005Z" fill="white"/>
</mask>
<g mask="url(#mask0_0_1011)">
<path id="Rectangle 6-border" fill-rule="evenodd" clip-rule="evenodd" d="M-1.2 5.45005C-1.2 3.46183 0.41177 1.85005 2.4 1.85005H14.4C16.3882 1.85005 18 3.46183 18 5.45005V15.5622C18 17.5505 16.3882 19.1622 14.4 19.1622H2.4C0.41178 19.1622 -1.2 17.5505 -1.2 15.5622V5.45005ZM2.4 4.25005C1.73726 4.25005 1.2 4.78731 1.2 5.45005V15.5622C1.2 16.225 1.73726 16.7622 2.4 16.7622H14.4C15.0627 16.7622 15.6 16.225 15.6 15.5622V5.45005C15.6 4.78731 15.0627 4.25005 14.4 4.25005H2.4Z" fill="#172A6B"/>
</g>
</g>
<path id="Rectangle 3 Copy 2" fill-rule="evenodd" clip-rule="evenodd" d="M11.785 6.09497C11.4316 6.09497 11.145 5.80843 11.145 5.45497V0.642661C11.145 0.289201 11.4316 0.00266075 11.785 0.00266075C12.1385 0.00266075 12.425 0.289201 12.425 0.642661V5.45497C12.425 5.80843 12.1385 6.09497 11.785 6.09497Z" fill="#172A6B"/>
<path id="Rectangle 3 Copy 4" fill-rule="evenodd" clip-rule="evenodd" d="M2.33997 9.24999C2.33997 8.89653 2.62651 8.60999 2.97997 8.60999H13.8192C14.1727 8.60999 14.4592 8.89653 14.4592 9.24999C14.4592 9.60345 14.1727 9.88999 13.8192 9.88999H2.97997C2.62651 9.88999 2.33997 9.60345 2.33997 9.24999Z" fill="#172A6B"/>
<path id="Rectangle 3 Copy 3" fill-rule="evenodd" clip-rule="evenodd" d="M5.015 6.09497C4.66154 6.09497 4.375 5.80843 4.375 5.45497V0.642661C4.375 0.289201 4.66154 0.00266075 5.015 0.00266075C5.36846 0.00266075 5.655 0.289201 5.655 0.642661V5.45497C5.655 5.80843 5.36846 6.09497 5.015 6.09497Z" fill="#172A6B"/>
</g>
</svg>
