<svg width="30" height="35" viewBox="0 0 30 35" fill="none" xmlns="http://www.w3.org/2000/svg">
<g clip-path="url(#clip0_0_1437)">
<path fill-rule="evenodd" clip-rule="evenodd" d="M14.4801 34.7317C12.8872 34.2324 7.9183 30.5712 4.25702 23.4626C2.06977 19.2307 0.31045 13.7626 0.00139 7.01062C-0.02238 6.654 0.26291 6.34493 0.61953 6.32116C2.11733 6.22606 3.6389 6.03586 5.11292 5.75057C5.08914 5.03733 4.92272 4.25277 5.61218 4.11013C8.58399 3.46821 12.1264 2.25571 14.2185 0.18733C14.4801 -0.07419 14.8842 -0.05041 15.122 0.18733C17.2141 2.23194 20.7565 3.44444 23.7284 4.11013C24.394 4.25277 24.2276 5.03733 24.2038 5.75057C25.6779 6.03586 27.2232 6.24983 28.6972 6.32116C29.0538 6.34493 29.3391 6.654 29.3154 7.01062C28.9825 13.7626 27.247 19.2307 25.0597 23.4626C21.3747 30.5949 16.3583 34.28 14.8367 34.7317C14.7178 34.7793 14.5989 34.7793 14.4801 34.7317H14.4801Z" fill="white"/>
<path fill-rule="evenodd" clip-rule="evenodd" d="M14.6732 34.1141C12.3671 33.4484 1.50215 24.7232 0.670044 6.9874C2.88107 6.86853 5.25852 6.48814 7.49332 5.87H21.8769C24.1117 6.48814 26.4891 6.84475 28.7001 6.9874C27.8443 24.7232 16.9793 33.4484 14.6732 34.1141Z" fill="#04764E"/>
<path fill-rule="evenodd" clip-rule="evenodd" d="M14.6725 32.565C12.8657 31.9231 4.3306 23.602 3.76001 6.67457C5.02006 6.48437 6.28011 6.22285 7.49261 5.89001H21.8762C23.0887 6.22285 24.3487 6.48437 25.6088 6.67457C25.0144 23.602 16.4794 31.9231 14.6725 32.565Z" fill="white"/>
<path fill-rule="evenodd" clip-rule="evenodd" d="M14.6754 31.3353C10.4198 28.316 6.75854 16.405 6.18795 12.0067C5.95021 10.2236 5.80756 6.82382 5.76001 4.77922C9.32619 3.99466 12.6784 2.66328 14.6754 0.690002C16.6725 2.66328 20.0485 3.99466 23.5909 4.77922C23.5433 6.82382 23.4007 10.2236 23.1629 12.0067C22.5924 16.405 19.0024 28.2447 14.6754 31.3353Z" fill="black"/>
<path fill-rule="evenodd" clip-rule="evenodd" d="M14.6682 25.29L15.215 26.5263L16.5464 26.6689L15.5479 27.5486L15.8332 28.8562L14.6682 28.1905L13.5033 28.8562L13.7886 27.5486L12.79 26.6689L14.1214 26.5263L14.6682 25.29Z" fill="white"/>
<path fill-rule="evenodd" clip-rule="evenodd" d="M14.6713 24.2926C19.3549 24.2926 23.1826 20.4649 23.1826 15.7813C23.1826 11.0977 19.3549 7.26999 14.6713 7.26999C9.98773 7.26999 6.16003 11.0977 6.16003 15.7813C6.16003 20.4649 9.98773 24.2926 14.6713 24.2926Z" fill="white"/>
<path fill-rule="evenodd" clip-rule="evenodd" d="M14.6713 22.9826C19.3549 22.9826 23.1826 19.1549 23.1826 14.4713C23.1826 9.78769 19.3549 5.95999 14.6713 5.95999C9.98773 5.95999 6.16003 9.78769 6.16003 14.4713C6.16003 19.1549 9.98773 22.9826 14.6713 22.9826Z" fill="#D0D0D0"/>
<path fill-rule="evenodd" clip-rule="evenodd" d="M14.6749 21.4397C19.2634 21.4397 23.0198 17.6833 23.0198 13.0948C23.0198 8.50637 19.2634 4.75 14.6749 4.75C10.0865 4.75 6.33008 8.50637 6.33008 13.0948C6.33008 17.6833 10.0865 21.4397 14.6749 21.4397Z" fill="white"/>
<path fill-rule="evenodd" clip-rule="evenodd" d="M19.7311 6.45999C21.7282 7.98156 22.9882 10.3828 22.9882 13.0931C22.9882 17.7053 19.2556 21.4379 14.6434 21.4379C11.838 21.4379 9.34164 20.0352 7.82007 17.8955C9.22277 18.9654 10.9821 19.6073 12.884 19.6073C17.4963 19.6073 21.2289 15.8747 21.2289 11.2624C21.2765 9.47935 20.7059 7.81514 19.7311 6.45999Z" fill="#DADADA"/>
<path fill-rule="evenodd" clip-rule="evenodd" d="M21.3519 17.4958C21.5183 17.0678 21.5897 16.6637 21.5659 16.2833C21.6848 16.1169 21.7799 15.9504 21.875 15.7602C22.0652 15.4036 22.2078 15.0232 22.3029 14.6428C22.4693 14.0485 22.5406 13.4303 22.5169 12.7646C22.5644 12.7171 22.6357 12.622 22.6833 12.5269C22.7071 12.7171 22.7071 12.9073 22.7071 13.0975C22.7071 14.3575 22.4218 15.5463 21.8987 16.6161C21.7085 16.9252 21.5421 17.2105 21.3519 17.4958ZM19.7115 16.7588C19.6639 16.7588 19.6164 16.7588 19.5926 16.7588C19.4262 16.2595 19.236 15.8316 18.9982 15.4036C18.9507 15.3085 18.8794 15.1897 18.8318 15.0946C18.6416 14.7855 18.4277 14.4764 18.1899 14.2149C18.4752 13.5967 18.6892 13.0024 18.8318 12.3843C18.9269 11.9325 18.9982 11.4808 19.0458 11.0291C19.2835 10.9816 19.5213 10.9102 19.7352 10.8627C20.2345 10.7438 20.71 10.6249 21.2093 10.4823C21.4232 10.6249 21.6848 10.934 21.8987 11.3144C22.0889 11.671 22.2791 12.099 22.398 12.5982C22.4455 13.3352 22.3742 14.0009 22.2078 14.6428C22.1365 14.9281 22.0176 15.2134 21.8987 15.4987C21.7799 15.7602 21.6372 16.0218 21.4946 16.2595C20.8764 16.5448 20.2821 16.735 19.7115 16.7588ZM18.808 17.995C18.4514 18.5181 18.0473 18.946 17.6906 19.1838C17.1676 19.3502 16.5732 19.4691 15.9789 19.5166C15.8363 19.5166 15.6936 19.5404 15.5747 19.5404C14.9804 19.5404 14.4573 19.4691 14.0769 19.3264C13.9819 19.2076 13.8868 19.0649 13.7917 18.946C13.3875 18.3754 13.0546 17.7335 12.8407 17.0203C13.1735 16.6399 13.4826 16.2357 13.7917 15.8553C13.8392 15.8078 13.8868 15.7365 13.9105 15.6889C14.2434 15.2372 14.5524 14.8093 14.814 14.3338C15.1944 14.3575 15.5985 14.3813 15.9789 14.3813C16.6683 14.3813 17.3578 14.3575 18.0473 14.2862C18.3326 14.6191 18.5941 14.9757 18.808 15.3799C18.8318 15.4274 18.8556 15.4512 18.8794 15.4987C19.0933 15.9029 19.2835 16.3308 19.45 16.7826C19.3073 17.1867 19.0696 17.6147 18.808 17.995ZM18.808 19.9446C18.6416 20.0397 18.4752 20.1348 18.285 20.2299C18.3088 20.1823 18.3326 20.111 18.3563 20.0634C18.5227 20.0397 18.6654 19.9921 18.808 19.9446C18.8318 19.9208 18.8556 19.9208 18.8556 19.897C18.8556 19.9208 18.8318 19.9446 18.808 19.9446ZM18.0948 20.3487C17.4291 20.6578 16.7397 20.8718 16.0027 21.0144C15.5747 21.0857 15.1468 21.1333 14.6951 21.1333C14.386 21.1333 14.1007 21.1095 13.8154 21.0857C13.3399 21.0382 12.8644 20.9431 12.4127 20.8004C12.3652 20.8004 12.3414 20.7767 12.2939 20.7529C12.175 20.6578 12.1037 20.5152 12.0561 20.3487V20.325C12.175 20.325 12.2939 20.3012 12.4127 20.2774C12.9358 20.1823 13.3875 19.9921 13.8154 19.683C13.9105 19.6117 14.0056 19.5404 14.0769 19.4691C14.4573 19.6355 15.0042 19.7068 15.5985 19.683C15.7412 19.683 15.8838 19.683 16.0027 19.6593C16.5257 19.6355 17.0487 19.5404 17.5242 19.3978C17.7382 19.6593 17.9522 19.9208 18.2612 20.0634C18.1899 20.1585 18.1424 20.2536 18.0948 20.3487ZM12.0323 20.6578C10.9149 20.2536 9.89263 19.6355 9.06052 18.8034L9.01297 18.7558C8.8941 18.637 8.77523 18.4943 8.65635 18.3754C8.799 18.423 8.91787 18.4705 9.06052 18.4943C9.10807 18.4943 9.1794 18.5181 9.22694 18.5181C9.53601 19.1838 10.9387 20.1348 11.8659 20.3012C11.9135 20.4201 11.961 20.5389 12.0323 20.6578ZM8.51371 18.1615C8.48993 18.1615 8.48993 18.1377 8.46616 18.1377C7.99067 17.5433 7.5865 16.8777 7.27743 16.1644C6.87327 15.2134 6.6593 14.1911 6.6593 13.0975C6.6593 13.0262 6.6593 12.9548 6.6593 12.8835C6.68307 12.8122 6.73062 12.7409 6.7544 12.6933C6.8495 12.5269 6.9446 12.3843 7.06347 12.2654C7.13479 12.3367 7.18235 12.408 7.25367 12.4556C7.58651 12.7409 7.96691 12.9548 8.39485 13.1213C8.46617 13.6919 8.60882 14.2624 8.77524 14.7855C8.84656 15.0232 8.94166 15.2372 9.03676 15.4512C9.1794 15.8078 9.34582 16.1406 9.53602 16.4735C9.29828 17.0916 9.13185 17.7098 9.1794 18.3754C9.13185 18.3754 9.08431 18.3754 9.03676 18.3517C8.87034 18.3041 8.68014 18.2566 8.51372 18.1615H8.51371ZM7.27743 10.0068C7.44385 9.62641 7.61028 9.2698 7.82425 8.91318C7.82425 8.9845 7.84802 9.0796 7.87179 9.15092L7.84802 9.19847C7.61028 9.50754 7.42008 9.91171 7.27743 10.3396C7.08724 10.9102 6.99214 11.5284 7.03969 12.0752C6.92082 12.2178 6.80195 12.3605 6.68307 12.5507C6.73062 11.671 6.94459 10.8151 7.27743 10.0068ZM9.01297 7.41538L9.06052 7.36784C9.89263 6.5595 10.8912 5.91759 12.0323 5.51342C12.1512 5.46587 12.2701 5.4421 12.389 5.39455C12.5316 5.347 12.6743 5.32323 12.8169 5.27568C12.6505 5.4421 12.6029 5.67984 12.6029 5.91759C12.5316 5.94136 12.4603 5.96514 12.389 6.01268C12.2701 6.06023 12.1512 6.13156 12.0323 6.20288C11.6995 6.3693 11.4142 6.58327 11.1289 6.79724C10.6772 7.15386 10.273 7.5818 9.94018 8.03352C9.63111 8.10484 9.32204 8.17617 9.06052 8.29504C8.63258 8.46146 8.25219 8.72298 7.96689 9.03205C7.96689 8.96073 7.94312 8.91318 7.94312 8.84185C7.94312 8.81808 7.94312 8.7943 7.94312 8.74675C8.25219 8.27126 8.60881 7.81955 9.01297 7.41538ZM14.7189 14.1911C14.4336 14.6666 14.1245 15.1183 13.7917 15.5701L13.7679 15.5938C13.435 16.0455 13.0784 16.4735 12.7218 16.9014C12.6029 16.9014 12.4841 16.9014 12.389 16.9014C12.2701 16.9014 12.1512 16.9014 12.0323 16.8777C11.2002 16.8301 10.3919 16.6161 9.65488 16.3071C9.41714 15.9029 9.22694 15.4987 9.06052 15.0708C9.01297 14.9519 8.96542 14.833 8.94165 14.7142C8.77523 14.1911 8.65636 13.6681 8.56126 13.1213C8.7039 12.7646 8.87032 12.408 9.06052 12.099C9.46469 11.4333 9.94018 10.934 10.4632 10.5536C10.9863 10.6012 11.5093 10.6487 12.0086 10.7438L12.0799 10.7676C12.175 10.7914 12.2701 10.7914 12.3652 10.8151C12.7694 10.8865 13.1973 11.0053 13.6015 11.1004C13.649 11.2669 13.7203 11.4333 13.7679 11.5997C14.0769 12.4793 14.386 13.3352 14.7189 14.1911ZM13.7917 6.03646C14.5049 6.10778 15.1468 6.27421 15.6461 6.58328C15.7887 6.91612 15.9076 7.29651 16.0027 7.70068V7.72445C16.0978 8.17617 16.1691 8.67543 16.2166 9.15092C16.1453 9.1747 16.074 9.22225 16.0027 9.2698C15.2181 9.69774 14.3385 10.3872 13.7917 10.9578C13.7679 10.9816 13.7441 11.0053 13.7203 11.0529C13.2924 10.934 12.8407 10.8151 12.4127 10.7438C12.3176 10.72 12.2225 10.72 12.1512 10.6963L12.0561 10.6725C11.5569 10.5774 11.0576 10.5298 10.5345 10.4823C10.2017 9.74528 10.0828 8.96072 10.0828 8.15239C10.3919 7.70068 10.7961 7.29651 11.2478 6.96367C11.5093 6.77347 11.7708 6.58328 12.0799 6.41685C12.1988 6.34553 12.3176 6.29798 12.4365 6.22666C12.5554 6.15533 12.698 6.10779 12.8407 6.06024C13.126 5.98891 13.4588 6.01269 13.7917 6.03646ZM15.9789 6.39308C16.3355 6.15533 16.9299 5.98891 17.5004 5.96514C17.9522 6.08401 18.4039 6.25043 18.808 6.4644C18.9507 6.5595 19.1171 6.63082 19.2598 6.7497C19.4024 6.84479 19.5688 6.96367 19.7115 7.08254C20.1394 7.41538 20.5198 7.84332 20.924 8.34259C21.2568 8.9845 21.3519 9.76906 21.1617 10.3159C20.6862 10.4585 20.187 10.5774 19.7115 10.6963C19.45 10.7676 19.2122 10.8151 18.9507 10.8865C18.9031 10.8389 18.8556 10.7914 18.808 10.7438C18.1186 10.0306 17.2389 9.48377 16.3355 9.15092C16.2879 8.65166 16.2166 8.17617 16.1216 7.70068C16.074 7.53426 16.0502 7.36783 15.9789 7.20141C15.9076 6.98744 15.8363 6.77347 15.7649 6.58328C15.8125 6.51195 15.8838 6.4644 15.9789 6.39308ZM18.808 6.22666C19.1171 6.41685 19.4262 6.63082 19.7115 6.86857C19.9254 7.03499 20.1394 7.22519 20.3296 7.43916C20.496 7.60558 20.6862 7.79577 20.8289 7.98597C20.8051 7.98597 20.7813 7.9622 20.7576 7.9622C20.4247 7.55803 20.0681 7.22519 19.7115 6.93989C19.5926 6.8448 19.4737 6.7497 19.3311 6.6546C19.1647 6.53573 18.9745 6.44063 18.808 6.34553C18.4514 6.15533 18.0473 6.01268 17.6431 5.89381C17.5004 5.75117 17.3578 5.60852 17.1676 5.48965C17.762 5.67984 18.3088 5.91759 18.808 6.22666ZM21.875 8.55656C21.3044 7.65313 20.5674 6.86857 19.7115 6.25043C19.4262 6.03646 19.1171 5.84626 18.808 5.67984C17.9522 5.20435 17.0012 4.87151 15.9789 4.70509C15.551 4.63377 15.123 4.60999 14.6713 4.60999C14.3622 4.60999 14.0769 4.63376 13.7917 4.65754C13.3162 4.70509 12.8407 4.80019 12.389 4.91906C12.2701 4.94283 12.1512 4.99038 12.0323 5.03793C10.9149 5.39455 9.9164 5.98891 9.06052 6.72592C8.34728 7.34406 7.75292 8.08107 7.27743 8.91318C6.5642 10.1494 6.16003 11.5759 6.16003 13.0975C6.16003 14.6191 6.5642 16.0455 7.27743 17.2818C7.75292 18.1139 8.34728 18.8509 9.06052 19.4691C9.9164 20.2299 10.9149 20.8004 12.0323 21.1571C12.1512 21.2046 12.2701 21.2284 12.389 21.2759C12.8407 21.3948 13.3162 21.4899 13.7917 21.5375C14.0769 21.5612 14.386 21.585 14.6713 21.585C15.123 21.585 15.551 21.5612 15.9789 21.4899C17.0012 21.3235 17.9522 20.9906 18.808 20.5151C19.1171 20.3487 19.4262 20.1348 19.7115 19.9446C20.5674 19.3264 21.3044 18.5181 21.875 17.6384C22.7071 16.3308 23.1826 14.7617 23.1826 13.0975C23.1826 11.4333 22.7071 9.86416 21.875 8.55656Z" fill="black"/>
</g>
<defs>
<clipPath id="clip0_0_1437">
<rect width="29.32" height="34.77" fill="white"/>
</clipPath>
</defs>
</svg>
