<svg width="147" height="126" viewBox="0 0 147 126" fill="none" xmlns="http://www.w3.org/2000/svg">
<g clip-path="url(#clip0_0_1192)">
<path fill-rule="evenodd" clip-rule="evenodd" d="M90.5151 13.4376L6.912 61.4834L49.8182 98.2245L134.352 49.8798L124.311 25.4379L90.5151 13.4376Z" fill="#F2F2F2"/>
<path fill-rule="evenodd" clip-rule="evenodd" d="M71.9494 93.1665C70.8812 93.8355 69.5641 93.8304 68.5003 93.1533L47.1604 79.5701C46.6394 79.2385 46.3201 78.6315 46.3221 77.9762C46.324 77.321 46.6468 76.7162 47.1697 76.3882L87.703 50.9615C89.068 50.1052 90.7519 50.1103 92.1126 50.9749L115.544 65.8638L71.9494 93.1665Z" fill="url(#paint0_linear_0_1192)"/>
<path fill-rule="evenodd" clip-rule="evenodd" d="M71.8437 92.9679L115.124 65.8625L92.0057 51.1729C90.7102 50.3519 89.1086 50.3469 87.8089 51.1599L47.2753 76.5865C46.8176 76.8737 46.535 77.4031 46.5334 77.9767C46.5318 78.5504 46.8114 79.0817 47.2675 79.3719L68.6072 92.9554C69.6058 93.5892 70.8409 93.594 71.8437 92.9679ZM72.0551 93.3647C71.5017 93.7112 70.874 93.8934 70.2351 93.8928C69.5877 93.8933 68.9519 93.7063 68.3933 93.3513L47.0536 79.7678C46.4676 79.395 46.1085 78.7124 46.1106 77.9755C46.1128 77.2386 46.4758 76.5585 47.0639 76.1897L87.5971 50.7631C89.0285 49.8674 90.7927 49.8727 92.2195 50.777L115.965 65.8652L72.0551 93.3647Z" fill="#314EB5"/>
<path fill-rule="evenodd" clip-rule="evenodd" d="M118.777 63.9791C115.72 64.8076 121.521 58.003 118.801 56.2752L94.4234 40.7849C89.7439 37.8114 83.9531 37.7918 79.2566 40.7335L21.0662 77.181C19.8002 77.9741 19.0182 79.4375 19.0132 81.0236C19.0082 82.6096 19.7802 84.079 21.0412 84.8817C21.0412 84.8817 18.1892 76.3616 21.3192 72.9199L32.0294 65.6805L83.0797 33.7497L89.1129 31.8006L95.2345 32.5791L102.422 36.7115L126.59 52.3805C126.59 52.3805 129.002 61.208 118.777 63.9791Z" fill="#CAD4F2"/>
<path fill-rule="evenodd" clip-rule="evenodd" d="M127.418 42.2106L122.092 48.9282L127.418 42.2106Z" fill="#808080"/>
<path fill-rule="evenodd" clip-rule="evenodd" d="M84.7615 32.4248L78.5346 21.7115L84.7615 32.4248Z" fill="#808080"/>
<path fill-rule="evenodd" clip-rule="evenodd" d="M100.625 22.2273L95.2344 32.5791L100.625 22.2273Z" fill="#808080"/>
<path fill-rule="evenodd" clip-rule="evenodd" d="M114.612 33.5593L109.287 40.2772L114.612 33.5593Z" fill="#808080"/>
<path fill-rule="evenodd" clip-rule="evenodd" d="M69.6511 41.1645L61.5527 33.3009L69.6511 41.1645Z" fill="#808080"/>
<path fill-rule="evenodd" clip-rule="evenodd" d="M54.5253 51.0381L46.4319 43.1678L54.5253 51.0381Z" fill="#808080"/>
<path fill-rule="evenodd" clip-rule="evenodd" d="M37.5889 62.4255L29.4956 54.5553L37.5889 62.4255Z" fill="#808080"/>
<path fill-rule="evenodd" clip-rule="evenodd" d="M24.4489 69.4777L15.0193 62.6906L24.4489 69.4777Z" fill="#808080"/>
<path fill-rule="evenodd" clip-rule="evenodd" d="M86.5646 51.6588L74.234 38.8616L86.5646 51.6588Z" fill="#808080"/>
<path fill-rule="evenodd" clip-rule="evenodd" d="M105.438 39.223L93.3508 51.7708L105.438 39.223Z" fill="#808080"/>
<path fill-rule="evenodd" clip-rule="evenodd" d="M120.716 48.0484L108.629 60.5962L120.716 48.0484Z" fill="#808080"/>
<path fill-rule="evenodd" clip-rule="evenodd" d="M67.5059 63.7381L54.3984 51.2046L67.5059 63.7381Z" fill="#808080"/>
<path fill-rule="evenodd" clip-rule="evenodd" d="M48.8107 75.135L33.5402 63.9093L48.8107 75.135Z" fill="#808080"/>
<path fill-rule="evenodd" clip-rule="evenodd" d="M121.863 49.9897L97.485 34.4994C93.0007 31.6571 87.4564 31.6383 82.9558 34.4501L24.7661 70.8977C23.6951 71.5682 23.0341 72.8057 23.0291 74.1468C23.0251 75.4879 23.6781 76.7303 24.7451 77.409L48.4099 92.4727C53.2887 95.5704 59.3235 95.5953 64.224 92.5381L121.843 56.5042C122.914 55.8338 123.577 54.5955 123.581 53.2534C123.585 51.9113 122.931 50.6681 121.863 49.9897ZM122.476 57.696L64.8573 93.7303C59.5615 97.0337 53.0402 97.0067 47.7679 93.6595L24.1031 78.5959C22.6471 77.6692 21.7551 75.973 21.7611 74.1421C21.7671 72.3112 22.6701 70.6218 24.1311 69.7063L82.3216 33.2588C87.2171 30.2003 93.2479 30.2207 98.1258 33.3121L122.504 48.8024C123.962 49.7284 124.855 51.4257 124.849 53.2579C124.843 55.0902 123.939 56.7808 122.476 57.696Z" fill="#6780ED"/>
<path fill-rule="evenodd" clip-rule="evenodd" d="M98.3394 33.6873C95.8632 32.1156 93.0455 31.2881 90.1764 31.2901C87.3419 31.2883 84.5568 32.096 82.1013 33.6322L24.5544 69.6768C23.3533 70.429 22.6113 71.8172 22.6063 73.3217C22.6013 74.8262 23.3343 76.22 24.5308 76.9813L48.1956 92.0441C53.2057 95.2251 59.4029 95.2509 64.4354 92.1117L122.054 56.0778C123.256 55.3258 123.999 53.9367 124.004 52.4313C124.008 50.9258 123.274 49.5312 122.077 48.7704L98.3394 33.6873ZM64.6463 92.5094C62.1289 94.082 59.2746 94.9088 56.3696 94.9068C53.4211 94.9087 50.5255 94.0572 47.9817 92.44L24.3173 77.3768C22.9913 76.5329 22.1783 74.9878 22.1833 73.3201C22.1893 71.6523 23.0113 70.1134 24.3433 69.2795L81.8899 33.2349C87.0517 30.0105 93.4102 30.032 98.5533 33.2914L122.291 48.3745C123.618 49.218 124.432 50.7639 124.426 52.4328C124.421 54.1017 123.598 55.6415 122.265 56.4751L64.6463 92.5094Z" fill="#3454BE"/>
<path fill-rule="evenodd" clip-rule="evenodd" d="M124.004 54.1721C124.008 52.6667 123.274 51.2721 122.077 50.5112L97.6988 35.0209C93.0833 32.0953 87.3767 32.076 82.7445 34.9703L24.5545 71.4178C23.3534 72.17 22.6114 73.5582 22.6064 75.0626C22.6014 76.5671 23.3344 77.9609 24.5309 78.7221L48.1957 93.7853C53.2058 96.9666 59.4031 96.9923 64.4354 93.8525L122.054 57.8186C123.256 57.0666 123.999 55.6776 124.004 54.1721ZM64.6464 94.2502C62.1289 95.8228 59.2744 96.6496 56.3692 96.6476C53.4209 96.6495 50.5256 95.7981 47.9818 94.1812L24.3174 79.1176C22.9914 78.2737 22.1784 76.7287 22.1834 75.0609C22.1894 73.3932 23.0114 71.8543 24.3434 71.0205L82.5331 34.5731C87.2971 31.5968 93.1658 31.6166 97.9126 34.625L122.291 50.1153C123.618 50.9589 124.432 52.5048 124.426 54.1737C124.421 55.8425 123.598 57.3823 122.265 58.2159L64.6464 94.2502Z" fill="url(#paint1_linear_0_1192)"/>
<path fill-rule="evenodd" clip-rule="evenodd" d="M89.6395 51.6004L47.6383 77.873L67.2894 90.1856L109.287 63.9052L89.6395 51.6004Z" fill="url(#paint2_linear_0_1192)"/>
<path fill-rule="evenodd" clip-rule="evenodd" d="M68.8111 87.1929L104.51 64.8594L88.117 54.5927L52.4147 76.9197L68.8111 87.1929ZM68.8639 87.4249C68.8479 87.4349 68.8296 87.4402 68.8111 87.4401C68.7925 87.4402 68.7743 87.4349 68.7582 87.4249L52.1504 77.0189C52.1177 76.9984 52.0976 76.9606 52.0976 76.9196C52.0976 76.8787 52.1177 76.8408 52.1504 76.8203L88.0641 54.361C88.0969 54.3406 88.1371 54.3407 88.1698 54.3612L104.774 64.7602C104.807 64.7807 104.827 64.8185 104.827 64.8595C104.827 64.9005 104.807 64.9383 104.774 64.9588L68.8639 87.4249Z" fill="white"/>
<path fill-rule="evenodd" clip-rule="evenodd" d="M88.1338 75.3827C88.1816 75.3826 88.2234 75.3478 88.2357 75.2977C88.2481 75.2476 88.228 75.1948 88.1866 75.1688L71.5791 64.7629C71.5286 64.7313 71.464 64.75 71.4348 64.8048C71.4056 64.8596 71.4229 64.9296 71.4734 64.9613L88.0809 75.3672C88.097 75.3773 88.1152 75.3827 88.1338 75.3827Z" fill="white"/>
<path fill-rule="evenodd" clip-rule="evenodd" d="M84.2359 68.6001C83.2521 68.033 82.1509 67.7482 81.037 67.7727V67.7727C79.9208 67.7495 78.8174 68.0333 77.8297 68.5977C76.9847 69.1212 76.5182 69.8107 76.5165 70.5391C76.5147 71.259 76.9686 71.9409 77.7946 72.4591C79.5511 73.5613 82.4247 73.5624 84.201 72.4618C85.046 71.9382 85.5123 71.2485 85.5142 70.5203C85.5158 69.8004 85.0619 69.1185 84.2359 68.6001ZM84.3059 72.6611C83.2859 73.2436 82.1464 73.5365 80.9939 73.5124C79.843 73.5378 78.7053 73.2434 77.6889 72.6575C76.7946 72.0965 76.3031 71.3439 76.3052 70.5387C76.307 69.7245 76.8113 68.9644 77.7248 68.3984C79.559 67.2619 82.5273 67.263 84.3416 68.4017C85.2361 68.9629 85.7274 69.7155 85.7256 70.5207C85.7235 71.3347 85.2194 72.0947 84.3059 72.6611Z" fill="white"/>
<path fill-rule="evenodd" clip-rule="evenodd" d="M66.8785 80.0057C66.897 80.0057 66.915 80.0004 66.931 79.9904C67.3428 79.7919 67.6227 79.3663 67.6617 78.8793C67.6267 78.399 67.3536 77.9773 66.9489 77.7787C65.9009 77.2054 64.6644 77.2048 63.6159 77.7769C63.5658 77.8086 63.5486 77.8782 63.5773 77.9329C63.6061 77.9875 63.67 78.0069 63.7207 77.9762C64.7028 77.4395 65.8614 77.4399 66.8432 77.9771C67.1805 78.1371 67.4124 78.4815 67.4503 78.8787C67.4088 79.2827 67.1704 79.6313 66.8261 79.7916C66.7845 79.8174 66.7642 79.8703 66.7765 79.9205C66.7888 79.9707 66.8306 80.0057 66.8785 80.0057L66.8785 80.0057Z" fill="white"/>
<path fill-rule="evenodd" clip-rule="evenodd" d="M64.7982 84.9259C64.8178 84.9259 64.8369 84.92 64.8535 84.9088L69.631 81.7286C69.6628 81.7076 69.6819 81.67 69.6814 81.6296C69.6809 81.5892 69.6609 81.552 69.6288 81.5316L61.1514 76.2041C61.1184 76.1834 61.0777 76.1836 61.0448 76.2045L56.154 79.3299C56.1214 79.3507 56.1015 79.3888 56.1018 79.4298C56.1021 79.4708 56.1225 79.5086 56.1555 79.5288C56.1884 79.549 56.2287 79.5487 56.2613 79.5279L61.0989 76.4361L69.3695 81.6337L64.7429 84.7136C64.7026 84.7405 64.6837 84.7931 64.6966 84.8424C64.7094 84.8917 64.7509 84.9258 64.7982 84.9259L64.7982 84.9259Z" fill="white"/>
<path fill-rule="evenodd" clip-rule="evenodd" d="M63.4024 84.0248C63.4219 84.0249 63.4411 84.019 63.4577 84.0078L66.6601 81.876C66.6918 81.8548 66.7109 81.8171 66.7105 81.7768C66.71 81.7364 66.69 81.6992 66.6578 81.6789L60.9747 78.1077C60.9417 78.087 60.901 78.0872 60.8682 78.1082L57.5896 80.2028C57.557 80.2236 57.5371 80.2617 57.5374 80.3027C57.5377 80.3437 57.5582 80.3815 57.5911 80.4017C57.624 80.4219 57.6643 80.4216 57.6969 80.4008L60.9223 78.3397L66.3983 81.7811L63.347 83.8125C63.3068 83.8394 63.2879 83.892 63.3007 83.9414C63.3136 83.9907 63.3551 84.0248 63.4024 84.0248L63.4024 84.0248Z" fill="white"/>
<path fill-rule="evenodd" clip-rule="evenodd" d="M95.5304 65.308C95.5487 65.308 95.5668 65.3028 95.5828 65.293L100.469 62.2632C100.503 62.2431 100.523 62.2052 100.524 62.1639C100.524 62.1227 100.504 62.0844 100.471 62.0637C100.438 62.043 100.397 62.0431 100.365 62.0639L95.5306 65.0612L86.7751 59.5839L91.5125 56.6072C91.5452 56.5866 91.5653 56.5487 91.5652 56.5078C91.5651 56.4668 91.5449 56.429 91.5122 56.4086C91.4794 56.3882 91.4391 56.3882 91.4064 56.4088L86.5109 59.4849C86.4783 59.5055 86.4582 59.5433 86.4582 59.5843C86.4583 59.6252 86.4784 59.663 86.5111 59.6835L95.4775 65.2927C95.4936 65.3027 95.5118 65.3079 95.5304 65.308H95.5304Z" fill="white"/>
<path fill-rule="evenodd" clip-rule="evenodd" d="M95.5072 63.2312C95.5256 63.2312 95.5437 63.2261 95.5596 63.2162L98.7391 61.245C98.7724 61.2249 98.7931 61.187 98.7934 61.1457C98.7937 61.1044 98.7736 61.0662 98.7407 61.0455C98.7078 61.0248 98.6671 61.0248 98.6343 61.0457L95.5074 62.9844L89.8844 59.4667L92.9115 57.5647C92.962 57.5329 92.9792 57.4627 92.9499 57.4079C92.9206 57.3531 92.8559 57.3345 92.8054 57.3663L89.6201 59.3678C89.5875 59.3883 89.5675 59.4262 89.5675 59.4671C89.5675 59.5081 89.5877 59.5459 89.6204 59.5664L95.4544 63.216C95.4705 63.2259 95.4887 63.2312 95.5072 63.2312L95.5072 63.2312Z" fill="white"/>
<path fill-rule="evenodd" clip-rule="evenodd" d="M91.2426 64.0179C91.8232 64.0299 92.3971 63.8824 92.911 63.5891C92.9443 63.569 92.965 63.5311 92.9653 63.4898C92.9656 63.4485 92.9455 63.4103 92.9126 63.3896C92.8797 63.3689 92.839 63.3689 92.8062 63.3898C91.8239 63.9262 90.6654 63.9257 89.6835 63.3886C89.3461 63.2287 89.1141 62.8842 89.0764 62.4869C89.118 62.0831 89.3564 61.7347 89.7006 61.5746C89.7338 61.5545 89.7546 61.5166 89.7549 61.4753C89.7552 61.4341 89.7351 61.3958 89.7022 61.3751C89.6692 61.3544 89.6286 61.3545 89.5958 61.3753C89.184 61.5738 88.9042 61.9993 88.865 62.4862C88.8998 62.9667 89.173 63.3885 89.5778 63.587C90.0898 63.8822 90.6629 64.0305 91.2426 64.0179H91.2426Z" fill="white"/>
<path fill-rule="evenodd" clip-rule="evenodd" d="M48.7112 80.5575L31.5487 88.6484L48.7112 80.5575Z" fill="#808080"/>
<path fill-rule="evenodd" clip-rule="evenodd" d="M141.73 51.3373L131.746 56.6858L120.582 49.6712L63.9455 85.0915C58.5029 88.4953 51.7946 88.4674 46.3761 85.0185L25.5101 71.737L13.3511 79.3646L5.09411 76.3636L5.19711 93.0674L5.20811 93.0702C5.30911 97.9913 7.77811 102.496 11.7151 104.943L35.0731 119.643C47.0695 127.193 61.8708 127.21 73.8814 119.688L135.934 80.8257C139.491 78.6254 141.679 74.5152 141.657 70.0728L141.657 70.0727L141.73 51.3373Z" fill="url(#paint3_linear_0_1192)"/>
<path opacity="0.12" fill-rule="evenodd" clip-rule="evenodd" d="M54.5128 120.486C61.3485 120.491 68.065 118.545 73.987 114.841L136.039 75.9797C140.001 73.5296 142.265 68.7822 141.82 63.8589L141.399 63.9005C141.828 68.6456 139.646 73.2211 135.828 75.5824L73.7756 114.444C61.8251 121.903 47.1153 121.887 35.1794 114.4L11.8214 99.6997C7.32444 96.9231 4.82644 91.4686 5.50344 85.9044L5.08444 85.8489C4.38544 91.5956 6.96544 97.2289 11.6084 100.096L34.9674 114.797C40.9064 118.528 47.6493 120.491 54.5128 120.486Z" fill="black"/>
<path opacity="0.12" fill-rule="evenodd" clip-rule="evenodd" d="M54.3061 116.93C61.1417 116.936 67.8582 114.99 73.7802 111.286L135.832 72.4244C139.794 69.9745 142.059 65.227 141.613 60.3036L141.192 60.3452C141.622 65.0902 139.439 69.6658 135.621 72.0271L73.5688 110.889C61.6183 118.348 46.9087 118.331 34.9727 110.845L11.6147 96.1447C7.11768 93.368 4.61968 87.9136 5.29668 82.3494L4.87768 82.2938C4.17868 88.0405 6.75768 93.6738 11.4017 96.5415L34.7607 111.242C40.6997 114.973 47.4426 116.935 54.3061 116.93H54.3061Z" fill="black"/>
<path opacity="0.12" fill-rule="evenodd" clip-rule="evenodd" d="M54.0993 113.375C60.9349 113.381 67.6515 111.434 73.5734 107.731L135.626 68.8691C139.588 66.4191 141.852 61.6717 141.406 56.7483L140.985 56.7899C141.415 61.535 139.233 66.1105 135.414 68.4718L73.3621 107.334C61.4116 114.793 46.7018 114.776 34.7659 107.29L11.4079 92.5896C6.91086 89.8127 4.41386 84.3581 5.08986 78.7938L4.67086 78.7385C3.97186 84.4852 6.55186 90.1184 11.1949 92.9864L34.5539 107.686C40.4929 111.418 47.2358 113.38 54.0993 113.375H54.0993Z" fill="black"/>
<path fill-rule="evenodd" clip-rule="evenodd" d="M116.411 1.18047V26.8895L133.056 46.027V11.5986L116.411 1.18047Z" fill="white"/>
<path fill-rule="evenodd" clip-rule="evenodd" d="M133.056 11.6032V60.2483L134.775 59.1802V10.4947L133.056 11.6032Z" fill="#3352BF"/>
<path fill-rule="evenodd" clip-rule="evenodd" d="M116.411 1.18045L118.15 0.0999817L134.775 10.4947L133.056 11.6032L116.411 1.18045Z" fill="#1F72CE"/>
<path fill-rule="evenodd" clip-rule="evenodd" d="M100.154 22.2747L125.504 38.3824C126.852 39.2391 127.678 40.8092 127.673 42.5042C127.668 44.1991 126.831 45.763 125.478 46.6096L63.9455 85.0914C58.5028 88.4952 51.7945 88.4675 46.3761 85.0184L21.1033 68.932C19.7573 68.0748 18.9313 66.5056 18.9373 64.8119C18.9423 63.1181 19.7783 61.5552 21.1303 60.7082L82.586 22.2152C88.026 18.8078 94.7337 18.8306 100.154 22.2747ZM146.156 50.2403V40.7409L143.435 41.2074C142.492 39.9528 141.346 38.8952 140.053 38.0867L112.379 20.6978C99.5506 12.6367 83.7278 12.6304 70.8936 20.6814L7.26834 60.5934C5.38834 61.7624 3.78533 63.3918 2.58833 65.3515L0.284335 65.7465V73.8242L0.287335 73.8237C0.290335 79.2053 2.94734 84.174 7.25134 86.8495L32.2213 102.564C45.0443 110.634 60.8668 110.652 73.7057 102.611L140.038 61.0689C143.65 58.8362 145.953 54.7487 146.137 50.2434L146.156 50.2403Z" fill="black"/>
<path opacity="0.4" fill-rule="evenodd" clip-rule="evenodd" d="M100.035 22.418L125.385 38.5257C126.733 39.3824 127.559 40.9525 127.554 42.6475C127.549 44.3424 126.712 45.9063 125.359 46.7529L63.8265 85.2347C58.3838 88.6385 51.6755 88.6107 46.2571 85.1617L20.9842 69.0753C19.6382 68.2181 18.8132 66.6489 18.8182 64.9552C18.8242 63.2614 19.6592 61.6985 21.0112 60.8515L82.467 22.3585C87.9071 18.9511 94.6147 18.9738 100.035 22.418ZM73.7936 95.4167L140.126 53.8745C143.909 51.505 146.241 47.1272 146.244 42.3882C146.247 37.6491 143.921 33.2677 140.141 30.8923L112.467 13.5034C99.6385 5.44226 83.8157 5.43599 70.9815 13.4869L7.35625 53.399C-1.94875 59.2362 -1.95775 73.8039 7.33925 79.6551L32.3092 95.3693C45.1322 103.439 60.9547 103.457 73.7936 95.4167Z" fill="#E5E5E5"/>
<path fill-rule="evenodd" clip-rule="evenodd" d="M100.154 22.2747L125.504 38.3824C126.852 39.2391 127.678 40.8092 127.673 42.5042C127.668 44.1991 126.831 45.763 125.478 46.6096L63.9455 85.0914C58.5028 88.4953 51.7945 88.4674 46.3761 85.0184L21.1033 68.932C19.7573 68.0748 18.9313 66.5056 18.9373 64.8119C18.9423 63.1181 19.7783 61.5552 21.1303 60.7082L82.586 22.2152C88.026 18.8078 94.7337 18.8305 100.154 22.2747ZM73.7057 94.8148L140.038 53.2726C143.821 50.9031 146.153 46.5253 146.156 41.7863C146.159 37.0473 143.833 32.6658 140.053 30.2904L112.379 12.9015C99.5506 4.84038 83.7278 4.83411 70.8936 12.8851L7.26832 52.7971C-2.03668 58.6343 -2.04568 73.202 7.25132 79.0532L32.2213 94.7674C45.0443 102.837 60.8668 102.856 73.7057 94.8148Z" fill="url(#paint4_linear_0_1192)"/>
<path opacity="0.17" fill-rule="evenodd" clip-rule="evenodd" d="M94.0615 19.9191C94.2777 19.9563 94.4942 19.9908 94.7093 20.0368L108.901 10.951C108.744 10.8728 108.586 10.7965 108.429 10.7206L94.0615 19.9191Z" fill="white"/>
<path opacity="0.17" fill-rule="evenodd" clip-rule="evenodd" d="M105.807 25.8667L106.224 26.1318L119.702 17.5027L119.283 17.239L105.807 25.8667Z" fill="white"/>
<path opacity="0.17" fill-rule="evenodd" clip-rule="evenodd" d="M129.898 23.9098L116.364 32.5747L116.781 32.8398L130.318 24.1735L129.898 23.9098H129.898Z" fill="white"/>
<path opacity="0.17" fill-rule="evenodd" clip-rule="evenodd" d="M140.497 30.5915L126.659 39.4511C126.75 39.5704 126.837 39.6919 126.916 39.8185L140.892 30.8706C140.764 30.7746 140.63 30.6833 140.497 30.5915Z" fill="white"/>
<path opacity="0.17" fill-rule="evenodd" clip-rule="evenodd" d="M19.9693 67.8878C19.8768 67.7692 19.7881 67.6486 19.7082 67.5225L4.77927 77.0805L4.78517 77.0913C4.89127 77.1964 5.00187 77.2979 5.11177 77.4001L19.9693 67.8878Z" fill="white"/>
<path opacity="0.17" fill-rule="evenodd" clip-rule="evenodd" d="M37.04 97.3602L52.5937 87.4022C52.3775 87.3666 52.1616 87.3285 51.9465 87.2841L36.5606 97.1346C36.7205 97.2097 36.8795 97.2874 37.04 97.3602Z" fill="white"/>
<path fill-rule="evenodd" clip-rule="evenodd" d="M15.4782 84.2302L30.2648 74.7637L29.848 74.4982L15.0588 83.9665L15.4782 84.2302Z" fill="#F2F2F2"/>
<path opacity="0.17" fill-rule="evenodd" clip-rule="evenodd" d="M40.8131 81.4776L40.3958 81.2121L25.6667 90.6419L26.0861 90.9061L40.8131 81.4776Z" fill="white"/>
<path fill-rule="evenodd" clip-rule="evenodd" d="M100.154 22.2748L125.504 38.3825C126.852 39.2392 127.678 40.8093 127.673 42.5043C127.667 44.1992 126.831 45.7631 125.478 46.6097L63.9454 85.0915C58.5028 88.4954 51.7945 88.4675 46.376 85.0185L21.1039 68.9321C19.7569 68.0749 18.9319 66.5057 18.9369 64.812C18.9429 63.1182 19.7779 61.5553 21.1299 60.7083L82.5859 22.2153C88.026 18.8079 94.7336 18.8306 100.154 22.2748ZM65.7019 88.5491L129.457 48.621C131.571 47.2966 132.877 44.8523 132.885 42.2036C132.893 39.5549 131.601 37.1017 129.494 35.7629L102.451 18.579C95.8515 14.3857 87.6845 14.361 81.0638 18.5141L17.3929 58.455C15.2809 59.78 13.9769 62.2229 13.9689 64.8696C13.9619 67.5163 15.2509 69.968 17.3559 71.3075L44.3144 88.4674C50.9109 92.6662 59.0783 92.6974 65.7019 88.5491Z" fill="#B1FFE3"/>
<path fill-rule="evenodd" clip-rule="evenodd" d="M21.1299 62.5427L82.586 24.0497C88.0261 20.6423 94.7337 20.665 100.154 24.1092L125.504 40.2169C126.592 40.9003 127.351 42.0641 127.584 43.4043C127.953 41.4201 127.116 39.4011 125.504 38.3825L100.154 22.2748C94.7337 18.8306 88.0261 18.8079 82.586 22.2153L21.1299 60.7083C19.5029 61.7218 18.6559 63.7511 19.0269 65.7466C19.2609 64.3956 20.0299 63.2242 21.1299 62.5427Z" fill="#657DFE"/>
<path fill-rule="evenodd" clip-rule="evenodd" d="M10.382 67.3916V109.61L27.0267 120.034V77.8097L10.382 67.3916Z" fill="white"/>
<path fill-rule="evenodd" clip-rule="evenodd" d="M10.3836 67.3916L12.123 66.3116L28.7478 76.7059L27.0284 77.8148L10.3836 67.3916Z" fill="#1F72CE"/>
<path fill-rule="evenodd" clip-rule="evenodd" d="M16.0752 42.9168V47.273L19.5559 45.0896L16.0752 42.9168Z" fill="#CCCCCC"/>
<path fill-rule="evenodd" clip-rule="evenodd" d="M16.0752 44.2926L34.5869 55.1148L78.8727 27.2256L78.8989 26.618L60.4613 16.4947L16.0752 44.2926Z" fill="#3453BE"/>
<path fill-rule="evenodd" clip-rule="evenodd" d="M16.0752 42.9168L34.5134 54.4159L78.8989 26.618L60.4613 15.1189L16.0752 42.9168Z" fill="#046644"/>
<path fill-rule="evenodd" clip-rule="evenodd" d="M16.0752 42.9168L17.3465 43.7106V46.4755L16.0752 47.273V42.9168Z" fill="#3453BE"/>
<path fill-rule="evenodd" clip-rule="evenodd" d="M70.6747 77.623L87.0831 88.4113L131.946 60.7881L115.054 50.3383L70.6747 77.623Z" fill="#5A80DA"/>
<path fill-rule="evenodd" clip-rule="evenodd" d="M70.6747 77.2182L87.0831 87.4942L131.946 59.871L115.054 49.4212L70.6747 77.2182Z" fill="url(#paint5_linear_0_1192)"/>
<path fill-rule="evenodd" clip-rule="evenodd" d="M87.0831 88.9836V116.24L131.946 88.0664V59.8709L87.0831 87.4941V88.9836Z" fill="black"/>
<path fill-rule="evenodd" clip-rule="evenodd" d="M85.5107 86.4893V95.7903L83.2382 97.2656V113.833L87.083 116.24V95.7903V87.4941L85.5107 86.4893Z" fill="#5A80DA"/>
<path fill-rule="evenodd" clip-rule="evenodd" d="M28.7462 100.346V76.7058L27.0267 77.8143V120.039L28.7462 118.971L30.083 118.119V101.194L28.7462 100.346Z" fill="#3352BF"/>
<path fill-rule="evenodd" clip-rule="evenodd" d="M95.4312 111.023L95.4287 99.4926L102.027 103.805V115.375L95.4312 111.023Z" fill="url(#paint6_linear_0_1192)"/>
<path fill-rule="evenodd" clip-rule="evenodd" d="M131.998 85.4134V96.4997L122.196 102.674L120.197 101.384L117.511 103.104V105.626L116.651 106.167L114.438 104.739L111.752 106.458V109.253L102.026 115.375V103.815L131.998 85.4134Z" fill="#3555BF"/>
<path fill-rule="evenodd" clip-rule="evenodd" d="M94.6004 100.014V101.009L102.143 106.032L133.759 86.1798V85.501L102.143 104.942L94.6004 100.014Z" fill="#768DDA"/>
<path fill-rule="evenodd" clip-rule="evenodd" d="M94.6004 100.014L102.143 105.321L133.759 85.501L125.924 80.383L94.6004 100.014Z" fill="white"/>
<path fill-rule="evenodd" clip-rule="evenodd" d="M120.042 94.0993L117.66 95.5253L120.042 94.0993Z" fill="#E5E5E5"/>
<path fill-rule="evenodd" clip-rule="evenodd" d="M123.121 102.092V93.7169L130.979 88.7622V97.1216L123.121 102.092Z" fill="#768DDA"/>
<path fill-rule="evenodd" clip-rule="evenodd" d="M102.956 114.827V106.451L110.814 101.497V109.856L102.956 114.827Z" fill="#768DDA"/>
<path fill-rule="evenodd" clip-rule="evenodd" d="M122.196 102.674V93.4413L118.712 95.6293V100.45L122.196 102.674Z" fill="#5A80DA"/>
<path fill-rule="evenodd" clip-rule="evenodd" d="M120.197 94.6969V101.384L117.511 103.104V96.3837L120.197 94.6969Z" fill="#2F4EB6"/>
<path fill-rule="evenodd" clip-rule="evenodd" d="M114.438 98.3383V104.739L111.752 106.458V100.025L114.438 98.3383Z" fill="#2F4EB6"/>
<path fill-rule="evenodd" clip-rule="evenodd" d="M116.651 106.167L114.438 104.739V98.2993L116.651 96.9239V106.167Z" fill="#5A80DA"/>
<path fill-rule="evenodd" clip-rule="evenodd" d="M122.946 95.6417L131.288 90.4397L131.214 90.3012L122.872 95.5027L122.946 95.6417Z" fill="#E5E5E5"/>
<path fill-rule="evenodd" clip-rule="evenodd" d="M122.946 97.3294L131.288 92.1274L131.214 91.9884L122.872 97.1904L122.946 97.3294Z" fill="#E5E5E5"/>
<path fill-rule="evenodd" clip-rule="evenodd" d="M122.946 99.0166L131.288 93.8155L131.214 93.6766L122.872 98.8781L122.946 99.0166Z" fill="#E5E5E5"/>
<path fill-rule="evenodd" clip-rule="evenodd" d="M122.946 100.704L131.288 95.5027L131.214 95.3642L122.872 100.565L122.946 100.704Z" fill="#E5E5E5"/>
<path fill-rule="evenodd" clip-rule="evenodd" d="M102.751 108.301L111.093 103.099L111.019 102.96L102.677 108.162L102.751 108.301Z" fill="#E5E5E5"/>
<path fill-rule="evenodd" clip-rule="evenodd" d="M102.751 109.988L111.093 104.786L111.019 104.648L102.677 109.85L102.751 109.988Z" fill="#E5E5E5"/>
<path fill-rule="evenodd" clip-rule="evenodd" d="M102.751 111.676L111.093 106.474L111.019 106.335L102.677 111.537L102.751 111.676Z" fill="#E5E5E5"/>
<path fill-rule="evenodd" clip-rule="evenodd" d="M102.751 113.364L111.093 108.162L111.019 108.023L102.677 113.225L102.751 113.364Z" fill="#E5E5E5"/>
<path fill-rule="evenodd" clip-rule="evenodd" d="M108.619 28.612V34.8671C108.619 35.141 108.754 35.3941 108.973 35.5304L115.429 39.5471C115.562 39.6295 115.725 39.6291 115.857 39.5461C115.989 39.463 116.07 39.3099 116.07 39.1443V32.9896C116.07 32.7173 115.937 32.4655 115.72 32.3285L109.226 28.2331C109.101 28.1542 108.947 28.1539 108.821 28.2321C108.696 28.3103 108.619 28.4552 108.619 28.612V28.612Z" fill="#27419B"/>
<path fill-rule="evenodd" clip-rule="evenodd" d="M108.328 28.8269V35.082C108.328 35.356 108.463 35.609 108.682 35.7453L115.139 39.762C115.271 39.8444 115.434 39.844 115.566 39.761C115.698 39.6779 115.78 39.5248 115.78 39.3592V33.2046C115.78 32.9322 115.646 32.6804 115.429 32.5435L108.935 28.448C108.81 28.3692 108.656 28.3688 108.531 28.447C108.405 28.5252 108.328 28.6701 108.328 28.8269Z" fill="#27419B"/>
</g>
<defs>
<linearGradient id="paint0_linear_0_1192" x1="91.2062" y1="50.3229" x2="78.2452" y2="91.4718" gradientUnits="userSpaceOnUse">
<stop stop-color="#A0A8FF"/>
<stop offset="1" stop-color="#FE9C67"/>
</linearGradient>
<linearGradient id="paint1_linear_0_1192" x1="69.1426" y1="103.68" x2="74.8141" y2="33.2814" gradientUnits="userSpaceOnUse">
<stop stop-color="#7B92D8"/>
<stop offset="0.08" stop-color="#788FD8"/>
<stop offset="1" stop-color="#6780EE"/>
</linearGradient>
<linearGradient id="paint2_linear_0_1192" x1="93.2495" y1="54.001" x2="87.2322" y2="91.5886" gradientUnits="userSpaceOnUse">
<stop stop-color="#2BB947"/>
<stop offset="1" stop-color="#2EAE40"/>
</linearGradient>
<linearGradient id="paint3_linear_0_1192" x1="28.3591" y1="59.565" x2="94.2434" y2="117.376" gradientUnits="userSpaceOnUse">
<stop stop-color="white"/>
<stop offset="1" stop-color="#C1CBE4"/>
</linearGradient>
<linearGradient id="paint4_linear_0_1192" x1="67.2802" y1="111.113" x2="75.7719" y2="8.23896" gradientUnits="userSpaceOnUse">
<stop stop-color="#5BDEB0"/>
<stop offset="0.08" stop-color="#28C28B"/>
<stop offset="1" stop-color="#25C18A"/>
</linearGradient>
<linearGradient id="paint5_linear_0_1192" x1="68.4716" y1="70.7912" x2="125.015" y2="48.5055" gradientUnits="userSpaceOnUse">
<stop stop-color="#0B5F41"/>
<stop offset="1" stop-color="#006C47"/>
</linearGradient>
<linearGradient id="paint6_linear_0_1192" x1="95.4287" y1="107.43" x2="102.027" y2="107.43" gradientUnits="userSpaceOnUse">
<stop stop-color="#3453BE"/>
<stop offset="1" stop-color="#2946AA"/>
</linearGradient>
<clipPath id="clip0_0_1192">
<rect width="145.96" height="125.22" fill="white" transform="translate(0.280029 0.0999756)"/>
</clipPath>
</defs>
</svg>
