<svg width="37" height="37" viewBox="0 0 37 37" fill="none" xmlns="http://www.w3.org/2000/svg">
<g id="iconfinder_Air_Tickets_5355682 1" clip-path="url(#clip0_0_1313)">
<mask id="mask0_0_1313" style="mask-type:luminance" maskUnits="userSpaceOnUse" x="0" y="0" width="37" height="37">
<path id="iconfinder_Air_Tickets_5355682 1 clipping mask" fill-rule="evenodd" clip-rule="evenodd" d="M0 0H37V37H0V0Z" fill="white"/>
</mask>
<g mask="url(#mask0_0_1313)">
<g id="iconfinder_Air_Tickets_5355682 1_2">
<g id="Layer 2">
<g id="Icons">
<g id="Air Tickets">
<path id="Vector" fill-rule="evenodd" clip-rule="evenodd" d="M9.10666 23.0911C8.94311 23.0911 8.78626 23.1561 8.67061 23.2717C8.55496 23.3874 8.48999 23.5442 8.48999 23.7078V25.9155C8.48999 26.0839 8.55691 26.2455 8.67603 26.3646C8.79515 26.4837 8.9567 26.5506 9.12516 26.5506C9.29362 26.5506 9.45517 26.4837 9.57429 26.3646C9.6934 26.2455 9.76032 26.0839 9.76032 25.9155V23.7263C9.76305 23.6406 9.74787 23.5552 9.71573 23.4757C9.6836 23.3961 9.63523 23.3242 9.57371 23.2644C9.5122 23.2046 9.43888 23.1583 9.35846 23.1285C9.27804 23.0987 9.19228 23.0859 9.10666 23.0911V23.0911Z" fill="black"/>
<path id="Vector_2" fill-rule="evenodd" clip-rule="evenodd" d="M9.7403 19.3252C9.7403 19.1567 9.67339 18.9952 9.55427 18.876C9.43515 18.7569 9.27359 18.69 9.10514 18.69C8.93668 18.69 8.77513 18.7569 8.65601 18.876C8.53689 18.9952 8.46997 19.1567 8.46997 19.3252V21.5328C8.46997 21.7013 8.53689 21.8629 8.65601 21.982C8.77513 22.1011 8.93669 22.168 9.10514 22.168C9.2736 22.168 9.43515 22.1011 9.55427 21.982C9.67339 21.8629 9.7403 21.7013 9.7403 21.5328V19.3252Z" fill="black"/>
<path id="Vector_3" fill-rule="evenodd" clip-rule="evenodd" d="M13.2752 19.7903H15.8898C16.0583 19.7903 16.2199 19.7234 16.339 19.6043C16.4581 19.4852 16.525 19.3236 16.525 19.1552C16.525 18.9867 16.4581 18.8251 16.339 18.706C16.2199 18.5869 16.0583 18.52 15.8898 18.52H13.2752C13.1067 18.52 12.9452 18.5869 12.8261 18.706C12.7069 18.8251 12.64 18.9867 12.64 19.1552C12.64 19.3236 12.7069 19.4852 12.8261 19.6043C12.9452 19.7234 13.1067 19.7903 13.2752 19.7903Z" fill="black"/>
<path id="Vector_4" fill-rule="evenodd" clip-rule="evenodd" d="M22.1613 23.6567C22.1613 23.4931 22.0964 23.3363 21.9807 23.2206C21.8651 23.105 21.7082 23.04 21.5447 23.04H13.2752C13.1067 23.04 12.9452 23.1069 12.8261 23.226C12.7069 23.3452 12.64 23.5067 12.64 23.6752C12.64 23.8436 12.7069 24.0052 12.8261 24.1243C12.9452 24.2434 13.1067 24.3103 13.2752 24.3103H21.5262C21.6119 24.3131 21.6973 24.2979 21.7768 24.2658C21.8563 24.2336 21.9283 24.1852 21.9881 24.1237C22.0478 24.0622 22.0941 23.9889 22.124 23.9085C22.1538 23.8281 22.1665 23.7423 22.1613 23.6567V23.6567Z" fill="black"/>
<path id="Vector_5" fill-rule="evenodd" clip-rule="evenodd" d="M13.2752 25.47C13.1067 25.47 12.9452 25.5369 12.8261 25.656C12.7069 25.7752 12.64 25.9367 12.64 26.1052C12.64 26.2736 12.7069 26.4352 12.8261 26.5543C12.9452 26.6734 13.1067 26.7403 13.2752 26.7403H19.4418C19.6103 26.7403 19.7719 26.6734 19.891 26.5543C20.0101 26.4352 20.077 26.2736 20.077 26.1052C20.077 25.9367 20.0101 25.7752 19.891 25.656C19.7719 25.5369 19.6103 25.47 19.4418 25.47H13.2752Z" fill="black"/>
<path id="Vector_6" fill-rule="evenodd" clip-rule="evenodd" d="M13.2752 19.7903H15.8898C16.0583 19.7903 16.2199 19.7234 16.339 19.6043C16.4581 19.4852 16.525 19.3236 16.525 19.1552C16.525 18.9867 16.4581 18.8251 16.339 18.706C16.2199 18.5869 16.0583 18.52 15.8898 18.52H13.2752C13.1067 18.52 12.9452 18.5869 12.8261 18.706C12.7069 18.8251 12.64 18.9867 12.64 19.1552C12.64 19.3236 12.7069 19.4852 12.8261 19.6043C12.9452 19.7234 13.1067 19.7903 13.2752 19.7903Z" fill="black"/>
<path id="Vector_7" fill-rule="evenodd" clip-rule="evenodd" d="M12.6311 23.654C12.6311 23.8175 12.6961 23.9744 12.8118 24.09C12.9274 24.2057 13.0843 24.2707 13.2478 24.2707H21.5111C21.6796 24.2707 21.8411 24.2037 21.9603 24.0846C22.0794 23.9655 22.1463 23.8039 22.1463 23.6355C22.1463 23.467 22.0794 23.3055 21.9603 23.1864C21.8411 23.0672 21.6796 23.0003 21.5111 23.0003H13.2663C13.1806 22.9976 13.0952 23.0128 13.0157 23.0449C12.9361 23.077 12.8642 23.1254 12.8044 23.1869C12.7446 23.2484 12.6984 23.3217 12.6685 23.4022C12.6387 23.4826 12.6259 23.5684 12.6311 23.654H12.6311Z" fill="black"/>
<path id="Vector_8" fill-rule="evenodd" clip-rule="evenodd" d="M13.2752 25.47C13.1067 25.47 12.9452 25.5369 12.8261 25.656C12.7069 25.7752 12.64 25.9367 12.64 26.1052C12.64 26.2736 12.7069 26.4352 12.8261 26.5543C12.9452 26.6734 13.1067 26.7403 13.2752 26.7403H19.4418C19.6103 26.7403 19.7719 26.6734 19.891 26.5543C20.0101 26.4352 20.077 26.2736 20.077 26.1052C20.077 25.9367 20.0101 25.7752 19.891 25.656C19.7719 25.5369 19.6103 25.47 19.4418 25.47H13.2752Z" fill="black"/>
<path id="Vector_9" fill-rule="evenodd" clip-rule="evenodd" d="M30.7203 24.3966C30.5567 24.3966 30.3999 24.4615 30.2842 24.5772C30.1686 24.6928 30.1036 24.8497 30.1036 25.0132V28.5467C30.102 28.6029 30.0785 28.6562 30.0382 28.6954C29.9979 28.7345 29.944 28.7564 29.8878 28.7564H4.35163L5.2828 27.5231C5.36883 27.4142 5.41563 27.2795 5.41563 27.1407C5.41563 27.002 5.36883 26.8673 5.2828 26.7584L3.8768 24.9084L5.2828 23.0584C5.36731 22.95 5.41321 22.8166 5.41321 22.6791C5.41321 22.5417 5.36731 22.4082 5.2828 22.2999L3.8768 20.3512L5.2828 18.5012C5.36731 18.3929 5.41321 18.2594 5.41321 18.122C5.41321 17.9845 5.36731 17.8511 5.2828 17.7427L4.35163 16.5094H15.3529C15.5214 16.5094 15.6829 16.4425 15.8021 16.3233C15.9212 16.2042 15.9881 16.0427 15.9881 15.8742C15.9881 15.7058 15.9212 15.5442 15.8021 15.4251C15.6829 15.306 15.5214 15.239 15.3529 15.239H6.8368L7.3918 12.6305L17.8813 14.8012C17.9622 14.8186 18.0459 14.8199 18.1273 14.805C18.2088 14.7901 18.2866 14.7593 18.3561 14.7143C18.4257 14.6694 18.4858 14.6112 18.5328 14.543C18.5799 14.4749 18.6131 14.3981 18.6305 14.3171C18.6479 14.2361 18.6492 14.1525 18.6343 14.071C18.6194 13.9896 18.5886 13.9118 18.5436 13.8422C18.4987 13.7727 18.4405 13.7126 18.3723 13.6656C18.3042 13.6185 18.2274 13.5853 18.1464 13.5679L7.47813 11.2985C7.20706 11.2472 6.92665 11.3034 6.69639 11.4554C6.46612 11.6074 6.30414 11.8431 6.2448 12.1125L5.54797 15.2144H3.0813C2.95976 15.2056 2.83833 15.233 2.73235 15.2931C2.62637 15.3533 2.54058 15.4435 2.48582 15.5523C2.43106 15.6612 2.40978 15.7838 2.42467 15.9048C2.43956 16.0257 2.48995 16.1395 2.56948 16.2319L3.98164 18.0819L2.56948 19.9319C2.4883 20.0428 2.44455 20.1767 2.44455 20.3142C2.44455 20.4517 2.48831 20.5856 2.56948 20.6965L3.98164 22.6329L2.56948 24.4829C2.4883 24.5938 2.44455 24.7277 2.44455 24.8652C2.44455 25.0027 2.48831 25.1366 2.56948 25.2476L3.98164 27.1346L2.56948 28.9846C2.49844 29.0779 2.45549 29.1895 2.44565 29.3064C2.43582 29.4233 2.45952 29.5405 2.51397 29.6444C2.56394 29.7524 2.6441 29.8436 2.74476 29.9071C2.84543 29.9705 2.96231 30.0035 3.0813 30.0021H29.8693C30.2634 30.0021 30.6414 29.8455 30.9201 29.5668C31.1989 29.2881 31.3554 28.91 31.3554 28.5159V25.0317C31.358 24.9476 31.3433 24.8639 31.3123 24.7857C31.2813 24.7074 31.2346 24.6364 31.1751 24.5769C31.1156 24.5174 31.0445 24.4707 30.9663 24.4397C30.8881 24.4087 30.8044 24.394 30.7203 24.3966Z" fill="black"/>
</g>
</g>
</g>
<g id="Group">
<g id="Vector_10">
<path id="Vector-border" fill-rule="evenodd" clip-rule="evenodd" d="M26.827 10.6C30.3375 10.6 33.184 13.4463 33.184 16.957C33.184 20.4677 30.3375 23.314 26.827 23.314C23.3165 23.314 20.47 20.4677 20.47 16.957C20.47 13.4463 23.3165 10.6 26.827 10.6ZM21.27 16.957C21.27 20.0259 23.7583 22.514 26.827 22.514C29.8957 22.514 32.384 20.0259 32.384 16.957C32.384 13.8881 29.8957 11.4 26.827 11.4C23.7583 11.4 21.27 13.8881 21.27 16.957Z" fill="black"/>
</g>
</g>
<g id="Vector_11">
<path id="Vector-border_2" fill-rule="evenodd" clip-rule="evenodd" d="M26.8283 14.42L26.8283 14.42L27.0527 14.1122L26.8283 14.42ZM27.0639 14.0968L29.7127 16.0273C29.8525 16.1292 29.9109 16.3093 29.8577 16.4738L28.8463 19.5979C28.7929 19.7629 28.6392 19.8747 28.4657 19.8747H25.1925C25.0191 19.8747 24.8654 19.7629 24.812 19.598L24.812 19.598L23.7995 16.4739C23.7462 16.3094 23.8047 16.1292 23.9444 16.0274L26.5927 14.0968C26.7331 13.9944 26.9235 13.9944 27.0639 14.0968ZM24.1801 16.3506V16.3506L23.9457 16.0292L24.1801 16.3506ZM26.8284 14.915L29.0073 16.5031L28.1748 19.0747H25.4833L24.6499 16.503L26.8284 14.915ZM29.4771 16.3506L29.7104 16.0305L29.4771 16.3506L29.4771 16.3506Z" fill="black"/>
</g>
<g id="Vector_12">
<path id="Vector-border_3" fill-rule="evenodd" clip-rule="evenodd" d="M24.2121 11.303C24.2988 11.0998 24.5338 11.0054 24.737 11.0921L26.8359 11.9878L28.9353 11.0921C29.1385 11.0054 29.3735 11.0998 29.4602 11.303C29.5469 11.5062 29.4524 11.7412 29.2492 11.8279L26.9928 12.7906C26.8925 12.8334 26.7791 12.8334 26.6788 12.7906L24.423 11.8279C24.2198 11.7412 24.1253 11.5062 24.2121 11.303Z" fill="black"/>
</g>
<g id="Vector_13">
<path id="Vector-border_4" fill-rule="evenodd" clip-rule="evenodd" d="M22.2989 12.7016C22.519 12.6821 22.7131 12.8447 22.7326 13.0648L22.9494 15.5157C22.9589 15.6239 22.9241 15.7313 22.8529 15.8132L21.2419 17.6677L21.2419 17.6677C21.097 17.8345 20.8444 17.8522 20.6776 17.7073C20.5108 17.5625 20.4931 17.3098 20.638 17.143L22.1375 15.4169L21.9357 13.1353M22.9322 15.5172L22.5509 15.5509L22.5509 15.5509L22.9322 15.5172Z" fill="black"/>
</g>
<g id="Vector_14">
<path id="Vector-border_5" fill-rule="evenodd" clip-rule="evenodd" d="M21.4002 19.9702C21.4498 19.7549 21.6645 19.6206 21.8798 19.6702L21.7003 20.4498C21.485 20.4002 21.3507 20.1855 21.4002 19.9702ZM24.5232 20.4051C24.4673 20.3117 24.3757 20.245 24.2696 20.2206L21.8798 19.6702L21.7003 20.4498L23.9239 20.9619L25.0976 22.9254C25.2109 23.115 25.4565 23.1769 25.6461 23.0635C25.8357 22.9502 25.8976 22.7046 25.7842 22.515L24.5232 20.4051ZM24.5232 20.4051L24.1798 20.6104L24.1798 20.6104L24.5232 20.4051Z" fill="black"/>
</g>
<g id="Vector_15">
<path id="Vector-border_6" fill-rule="evenodd" clip-rule="evenodd" d="M31.9588 20.4398L29.736 20.9518L28.5634 22.9162C28.4502 23.1059 28.2046 23.1679 28.015 23.0547C27.8253 22.9414 27.7633 22.6959 27.8765 22.5062L29.1365 20.3953C29.1924 20.3018 29.284 20.235 29.3902 20.2106L31.7792 19.6602C31.9945 19.6106 32.2092 19.7449 32.2588 19.9602C32.3084 20.1755 32.1741 20.3902 31.9588 20.4398ZM29.48 20.6004L29.1381 20.3962L29.48 20.6004L29.48 20.6004Z" fill="black"/>
</g>
<g id="Vector_16">
<path id="Vector-border_7" fill-rule="evenodd" clip-rule="evenodd" d="M31.3717 12.7016C31.5918 12.721 31.7544 12.9152 31.735 13.1352L31.5334 15.4153L33.0342 17.1425C33.1791 17.3092 33.1614 17.5619 32.9946 17.7068C32.8279 17.8517 32.5752 17.834 32.4303 17.6672L32.4303 17.6672L30.8181 15.8117L31.12 15.5494L31.12 15.5494L30.7216 15.5141L30.9381 13.0648C30.9575 12.8447 31.1517 12.6821 31.3717 12.7016ZM31.12 15.5494L30.8181 15.8117C30.7468 15.7298 30.712 15.6223 30.7215 15.5141L31.12 15.5494Z" fill="black"/>
</g>
<g id="Vector_17">
<path id="Vector-border_8" fill-rule="evenodd" clip-rule="evenodd" d="M26.83 12.03C27.0509 12.03 27.23 12.2091 27.23 12.43V14.4238C27.23 14.6447 27.0509 14.8238 26.83 14.8238C26.609 14.8238 26.43 14.6447 26.43 14.4238V12.43C26.43 12.2091 26.609 12.03 26.83 12.03Z" fill="black"/>
</g>
<g id="Vector_18">
<path id="Vector-border_9" fill-rule="evenodd" clip-rule="evenodd" d="M31.3049 15.9023C31.4995 15.7978 31.5725 15.5553 31.4679 15.3607C31.3634 15.1661 31.1209 15.0931 30.9263 15.1976L29.2907 16.0764C29.0961 16.181 29.0231 16.4235 29.1276 16.6181C29.2322 16.8127 29.4747 16.8857 29.6693 16.7811L31.3049 15.9023Z" fill="black"/>
</g>
<g id="Vector_19">
<path id="Vector-border_10" fill-rule="evenodd" clip-rule="evenodd" d="M28.2031 19.1821C28.3676 19.0347 28.6205 19.0486 28.7679 19.2131L29.7793 20.3421C29.9267 20.5066 29.9128 20.7595 29.7483 20.9069C29.5837 21.0543 29.3308 21.0404 29.1834 20.8759L28.172 19.7469C28.0246 19.5824 28.0385 19.3295 28.2031 19.1821Z" fill="black"/>
</g>
<g id="Vector_20">
<path id="Vector-border_11" fill-rule="evenodd" clip-rule="evenodd" d="M25.4588 19.182C25.6234 19.3294 25.6373 19.5823 25.4899 19.7469L24.894 19.2132C25.0413 19.0486 25.2942 19.0347 25.4588 19.182ZM24.894 19.2132L23.8821 20.3432C23.7347 20.5078 23.7486 20.7606 23.9132 20.908C24.0778 21.0554 24.3307 21.0414 24.478 20.8769L24.478 20.8769L25.4899 19.7469L24.894 19.2132Z" fill="black"/>
</g>
<g id="Vector_21">
<path id="Vector-border_12" fill-rule="evenodd" clip-rule="evenodd" d="M22.1907 15.3743C22.2877 15.1759 22.5272 15.0936 22.7257 15.1906L24.3621 15.9904C24.5605 16.0874 24.6428 16.327 24.5458 16.5254C24.4488 16.7239 24.2092 16.8062 24.0108 16.7091L22.3744 15.9094C22.1759 15.8123 22.0937 15.5728 22.1907 15.3743Z" fill="black"/>
</g>
</g>
</g>
</g>
<defs>
<clipPath id="clip0_0_1313">
<rect width="37" height="37" fill="white"/>
</clipPath>
</defs>
</svg>
